<svg xmlns="http://www.w3.org/2000/svg" viewBox="0 0 473.1 307.8" enable-background="new 0 0 473.1 307.8"><path fill="#A7A9AC" d="M176.6 100.9h38.2v23.7h-38.2zm47.3 0h23.7v23.7h-23.7zm-89.6-34.2v108.3h-134.3v-175h23.7v151.4h86.9v-26.8h-46.7v-57.9h23.6v34.2h23.1v-34.2zm-134.3 122.5h110.6v23.7h-110.6zm405.4-189.2v100.9h-110.7v-11.3h82.9v-58.6h-106.6v35h-23.5v-35h-23.6v35h-23.7v-34.5h-23.7v34.5h-30.3v217.9h-146.2v23.7h169.9v-218h101.1v35h158v-100.9h20.4v283.8h23.7v-307.5h-67.7zm-110.7 54.6h59.3v11.4h-59.3v-11.4z"/><path d="M306.1 142.5v160.4c0 2.7-2.2 4.9-4.9 4.9h-2.2c-2.7 0-4.9-2.2-4.9-4.9v-118l-17.7 61.9c-.9 3.7-4.1 6.2-7.9 6.3-3.8.1-7.1-2.3-8.2-5.9l-11.3-37.2h-11.2c-2.7 0-4.9-2.2-4.9-4.9v-2.3c0-2.7 2.2-4.8 4.9-4.8h7.5l-12.7-41.6-31.6 90.9c-1 3.1-3.7 5.2-6.9 5.6-3.2.4-6.3-1.1-8-3.8l-28.1-41.2c-1.6-2.5-1.8-5.7-.4-8.3s4.2-4.3 7.2-4.5c12.3-.8 32.6-5.7 33.5-28.8-.2-21-23.3-23.3-25.7-23.5h-96.3v105.2c0 2.7-2.2 4.8-4.8 4.8h-2.4c-2.7 0-4.8-2.2-4.8-4.8v-112.4c0-2.7 2.2-4.9 4.9-4.9h104c12.8.8 37 9.2 37.1 35.6v.2c-.5 14.7-7.1 26.1-19.1 33.1-6.8 4-14.2 5.9-20 6.7l20.9 29.8 32.9-94.7c1.1-3.4 4.3-5.6 7.8-5.6h.1c3.6.1 6.7 2.4 7.8 5.8l27.3 89.4 24.9-90.5c.9-3.5 4.4-5.7 8.1-4.8 3 .7 5.1 3.6 5.1 6.8zm159.3 109.5l-2.2.7c-2.6.8-5.3-.7-6-3.2l-12.2-39.5h-10.6c-2.7 0-4.9-2.2-4.9-4.9v-2.3c0-2.7 2.2-4.9 4.9-4.9h6.9l-12.8-41.6-31.2 90.9c-1.2 3.5-4.5 5.7-8.1 5.7-3.7-.1-6.8-2.4-7.9-5.9l-11.5-37h-10.5c-2.7 0-4.9-2.2-4.9-4.9v-2.3c0-2.7 2.2-4.9 4.9-4.9h6.8l-12.8-41.6-31.6 94c-.8 2.5-3.6 3.9-6.1 3l-2.2-.8c-2.5-.8-3.9-3.6-3-6.1l35-104.1c1.2-3.5 4.5-5.9 8.2-5.8 3.7 0 7 2.5 8.1 6l27.8 90.2 30.9-90.1c1.2-3.5 4.5-5.9 8.2-5.9h.1c3.8 0 7 2.5 8.1 6.1l31.8 103.2c.8 2.5-.6 5.2-3.2 6z"/><path fill="#A7A9AC" d="M146.3 128.5h23.6v33.1h-23.6zm-137.3 22.9h110.6v23.7h-110.6z"/></svg>