<?xml version="1.0" encoding="utf-8"?>
<!-- Generator: Adobe Illustrator 19.1.0, SVG Export Plug-In . SVG Version: 6.00 Build 0)  -->
<!DOCTYPE svg PUBLIC "-//W3C//DTD SVG 1.1//EN" "http://www.w3.org/Graphics/SVG/1.1/DTD/svg11.dtd">
<svg version="1.1" xmlns="http://www.w3.org/2000/svg" xmlns:xlink="http://www.w3.org/1999/xlink" x="0px" y="0px"
	 viewBox="165 -81.8 474.6 204.7" style="enable-background:new 165 -81.8 474.6 204.7;" xml:space="preserve">
<style type="text/css">
	.st0{fill:#231F20;}
</style>
<g id="Layer_1">
</g>
<g id="Layer_7">
	<rect x="305.2" y="1.6" class="st0" width="31.6" height="19.6"/>
	<rect x="345.1" y="1.6" class="st0" width="17.9" height="19.6"/>
	<polygon class="st0" points="276,-27.5 276,62.9 165,62.9 165,-81.8 184.6,-81.8 184.6,43.3 256.5,43.3 256.5,21.2 217.8,21.2 
		217.8,-27.5 237.4,-27.5 237.4,1.6 256.5,1.6 256.5,-27.5 	"/>
	<rect x="165" y="74.6" class="st0" width="91.4" height="19.6"/>
	<path class="st0" d="M583.6-81.8V1.6H444.1v-9.3h68.5v-48.5h-88.1v28.9h-60.7v-28.9h-19.6v28.9h-19.6v-28.5h-19.6v28.5h-25.1v130.5
		H165v19.6h134.7V-7.7h124.9v28.9h178.6v-83.4H620v185h19.6V-81.8H583.6z M444.1-36.6h49v9.4h-49V-36.6z"/>
	<path class="st0" d="M353.1,104.5V86.2h9.1V30.7H306v91.9h19.6v-36h7.9v36h32.7v-18.2H353.1z M325.6,67.1V51h17.1v16.2H325.6z"/>
	<polygon class="st0" points="489,31.4 489,122.7 432.8,122.7 432.8,86.2 452.3,86.2 452.3,103.8 469.5,103.8 469.5,51 433.4,51 
		433.4,31.4 	"/>
	<rect x="353.1" y="86.2" class="st0" width="9.1" height="0.5"/>
	<path class="st0" d="M371,30.7v92.1h19.6V86.7h17.1v36.1h19.6V30.7H371z M407.7,67.1h-17.1V51h17.1V67.1z"/>
	<path class="st0" d="M493.8,30.7v91.9h19.6V86.2h17.1v36.6h19.6V30.7H493.8z M530.4,66.7h-17.1V50.5h17.1V66.7z"/>
	<path class="st0" d="M554.6,30.7v92.2h19.6V86.2h17.1v36.7h19.6V30.7H554.6z M591.2,66.7h-17.1V50.5h17.1V66.7z"/>
	<rect x="469.5" y="122.7" class="st0" width="19.6" height="0"/>
</g>
</svg>
