<?xml version="1.0" encoding="utf-8"?>
<!-- Generator: Adobe Illustrator 19.1.0, SVG Export Plug-In . SVG Version: 6.00 Build 0)  -->
<!DOCTYPE svg PUBLIC "-//W3C//DTD SVG 1.1//EN" "http://www.w3.org/Graphics/SVG/1.1/DTD/svg11.dtd">
<svg version="1.1" xmlns="http://www.w3.org/2000/svg" xmlns:xlink="http://www.w3.org/1999/xlink" x="0px" y="0px"
	 viewBox="0 0 633.9 278.5" enable-background="new 0 0 633.9 278.5" xml:space="preserve">
<g id="Layer_1">
</g>
<g id="Layer_2">
	<g>
		<g>
			<path fill="#111820" d="M297.5,217c-5.7,0-10.9-1.2-15.5-3.4c-0.9-0.4-1.7-0.9-2.6-1.4c-2.2-1.4-4.3-3.1-6.1-5l-0.7-0.7l0,0
				c-0.2-0.3-0.5-0.5-0.7-0.8c-0.2-0.3-0.4-0.5-0.7-0.8c-0.4-0.5-0.8-1.1-1.3-1.7l-0.2-0.3v0c-1.4-2-2.6-4.2-3.7-6.6
				c-1.5-3.2-2.7-6.8-3.8-10.7l-0.2-0.8c-1.7-6.8-2.5-14.8-2.5-23.8v-1h11.6l-0.1,1.1c-0.1,2,0.3,3.2,0.7,3.8l0.2,0.2l0,0.3
				c0,0.8,0.1,1.5,0.1,2.3c0.5,7.4,1.7,13.7,3.8,18.7l0.1,0.2v0c0.2,0.4,0.4,0.8,0.5,1.2c0.6,1.4,1.4,2.7,2.1,3.8
				c1,1.4,2,2.8,3.2,3.9c4,4,9.3,6.1,15.6,6.1c1.8,0,3.5-0.2,5.1-0.7c1.6-0.4,3.2-1.2,4.7-2.1c1.4-0.9,2.8-1.9,4-3.2l0.3-0.3
				c0.8-0.8,1.6-1.8,2.4-2.9c0.5-0.7,0.9-1.4,1.3-2c2.1-3.4,3.8-7.5,5.1-12.3l0.2-0.6l0.7-0.1c3.5-0.5,7.3-1.7,11.3-3.5l1.7-0.8
				l-0.3,1.8c-0.4,2.6-0.9,5.2-1.5,7.7c-0.8,3.3-1.8,6.3-2.9,9.1c-0.4,1.1-0.9,2.2-1.4,3.3l-0.1,0.2c-0.2,0.5-0.5,1-0.7,1.5l0,0
				l-0.6,1.2h0c-0.5,0.9-1,1.7-1.5,2.6c-0.2,0.3-0.4,0.6-0.5,0.8l-0.2,0.4c-0.2,0.2-0.3,0.5-0.5,0.7c-0.9,1.3-1.8,2.5-2.7,3.5
				l-0.7,0.8c-1.7,1.8-3.5,3.5-5.4,4.8c-0.6,0.4-1.2,0.8-1.7,1.1c-0.3,0.2-0.6,0.3-0.9,0.5c-0.9,0.5-1.8,1-2.7,1.4
				c-0.8,0.4-1.7,0.7-2.8,1.1C304.1,216.5,300.9,217,297.5,217z"/>
			<path fill="#111820" d="M270.1,160.9c-0.1,2.2,0.3,3.5,0.9,4.4c0,0.8,0.1,1.5,0.1,2.3c0.5,7.6,1.8,13.9,3.9,19v0
				c0.2,0.5,0.4,1,0.6,1.5c0.7,1.4,1.4,2.7,2.2,3.9c1,1.5,2.1,2.9,3.3,4.1c4.3,4.2,9.7,6.4,16.3,6.4c1.8,0,3.6-0.2,5.4-0.7
				c1.7-0.5,3.4-1.2,5-2.2c1.6-1,3.1-2.2,4.5-3.6v0c0.9-0.9,1.7-1.9,2.5-3c0.5-0.7,0.9-1.4,1.4-2.1c2.2-3.5,3.9-7.6,5.2-12.6
				c3.6-0.5,7.5-1.7,11.6-3.6c-0.4,2.6-0.9,5.2-1.5,7.6c-0.8,3.2-1.8,6.2-2.9,9c-0.5,1.2-1,2.3-1.5,3.4v0c-0.4,0.7-0.7,1.5-1.1,2.1
				c0,0,0,0,0,0c-0.6,1-1.1,2-1.7,3c-0.2,0.3-0.4,0.6-0.6,0.9c-0.2,0.3-0.4,0.6-0.6,0.9c-0.8,1.2-1.7,2.4-2.6,3.4
				c-0.2,0.3-0.5,0.5-0.7,0.8c-1.6,1.8-3.4,3.4-5.3,4.7c-0.5,0.4-1.1,0.7-1.6,1.1c-0.3,0.2-0.6,0.3-0.8,0.5
				c-0.9,0.5-1.7,0.9-2.6,1.3c-0.9,0.4-1.8,0.7-2.7,1c-3,1-6.1,1.5-9.4,1.5c-5.5,0-10.6-1.1-15.1-3.3c-0.9-0.4-1.7-0.9-2.5-1.4
				c-2.1-1.3-4.1-3-5.9-4.9c0,0,0,0,0,0c-0.5-0.5-0.9-1-1.3-1.5c-0.2-0.3-0.4-0.5-0.6-0.8c-0.4-0.5-0.8-1.1-1.2-1.6v0
				c-1.4-2-2.7-4.2-3.8-6.7c-1.5-3.1-2.7-6.7-3.7-10.5c-0.1-0.2-0.1-0.5-0.2-0.8c-1.7-6.7-2.5-14.6-2.5-23.6H270.1 M272.2,158.9
				h-2.1h-9.5h-2v2c0,9.1,0.9,17.2,2.5,24.1c0,0.1,0.1,0.3,0.1,0.4c0,0.1,0.1,0.2,0.1,0.3c1,4,2.3,7.7,3.8,10.9
				c1.1,2.3,2.3,4.5,3.6,6.5v0l0.4,0.5c0.5,0.7,0.9,1.2,1.3,1.7c0.2,0.3,0.4,0.6,0.7,0.8c0,0,0.1,0.1,0.1,0.1l0,0l1.3,1.4
				c0.1,0.1,0.3,0.3,0.4,0.4l0.2,0.2h0c1.8,1.8,3.7,3.3,5.7,4.6c0.9,0.6,1.8,1,2.6,1.5c4.8,2.3,10.1,3.5,16,3.5
				c3.5,0,6.9-0.5,10.1-1.6c1-0.3,2-0.7,2.9-1.1c0.9-0.4,1.8-0.9,2.7-1.4c0.3-0.2,0.6-0.4,0.9-0.5c0.6-0.3,1.1-0.7,1.8-1.2
				c2-1.4,3.9-3.1,5.6-5l0.7-0.8c1-1.1,1.9-2.3,2.8-3.6c0.2-0.3,0.3-0.5,0.5-0.8l0.1-0.2l0.1-0.2c0.2-0.3,0.4-0.6,0.5-0.9
				c0.4-0.7,0.8-1.3,1.2-2.1h0l0.4-0.7c0.1-0.1,0.1-0.2,0.2-0.4l0.7-1.3l0,0c0.2-0.3,0.3-0.6,0.4-0.9l0.2-0.4v0
				c0.5-1,0.9-2.1,1.3-3.2c1.1-2.8,2.1-5.9,2.9-9.2c0.6-2.5,1.2-5.1,1.6-7.8l0.6-3.7l-3.4,1.5c-3.9,1.8-7.6,2.9-11.1,3.4l-1.3,0.2
				l-0.3,1.3c-1.3,4.7-2.9,8.7-5,12c-0.4,0.6-0.8,1.3-1.3,2c-0.8,1.1-1.5,2-2.3,2.7l-0.6,0.6v0c-1.1,1.1-2.3,2-3.5,2.8
				c-1.5,0.9-3,1.6-4.5,2c-1.5,0.4-3.2,0.7-4.8,0.7c-6.1,0-11-1.9-14.9-5.8c-1.1-1.1-2.1-2.4-3.1-3.7c-0.7-1.1-1.4-2.4-2.1-3.7
				c-0.2-0.4-0.3-0.7-0.5-1l-0.1-0.4c-2-4.9-3.3-11.1-3.7-18.4c0-0.7-0.1-1.5-0.1-2.2l0-0.6l-0.3-0.5c-0.3-0.4-0.7-1.3-0.6-3.1
				L272.2,158.9L272.2,158.9z"/>
		</g>
		<g>
			<path fill="#111820" d="M143.9,214.4l-29.5-79.3H80.6v79.3H68.3V21.8h40.6c6.5,0,12.4,1.3,17.7,3.8c5.2,2.5,9.8,6.2,13.4,11.1
				c3.7,4.8,6.5,10.9,8.5,17.9c1.9,7,2.9,15.2,2.9,24.4c0,6.3-0.6,12.3-1.9,18c-1.2,5.6-3,10.7-5.3,15.2c-2.3,4.5-5,8.5-8.2,11.8
				c-2.9,3.1-6.2,5.5-9.7,7.3l25.5,67.6l5.9,15.6H143.9z M111.2,119.4c4.5,0,8.6-1.1,12-3.2c3.5-2.2,6.4-5.1,8.7-8.8
				c2.3-3.7,4.1-8,5.3-12.9c1.2-4.9,1.8-10.1,1.8-15.4c0-6.4-0.7-12.3-2-17.4c-1.3-5.1-3.3-9.5-5.8-13c-2.5-3.5-5.7-6.3-9.4-8.1
				c-3.7-1.9-8-2.8-12.9-2.8H80.6v81.8H111.2z"/>
			<path fill="#111820" d="M108.9,22.8c6.4,0,12.1,1.2,17.2,3.7c5.1,2.4,9.5,6,13.1,10.8c3.6,4.8,6.4,10.6,8.3,17.6
				c1.9,7,2.9,15,2.9,24.1c0,6.3-0.6,12.2-1.8,17.7c-1.2,5.5-3,10.5-5.2,15c-2.2,4.4-4.9,8.3-8,11.5c-3.1,3.2-6.5,5.7-10.3,7.5
				l12.8,33.9l0.7,1.9l12.3,32.7l5.4,14.2h-11.6l-6-16.2l-9-24.2l-2.4-6.4l-12.1-32.6H79.6v79.3H69.3V22.8H108.9 M79.6,120.4h31.6
				c4.8,0,8.9-1.1,12.5-3.4c3.6-2.3,6.6-5.3,9-9.1c2.4-3.8,4.2-8.2,5.4-13.2c1.2-5,1.8-10.2,1.8-15.6c0-6.6-0.7-12.4-2-17.7
				c-1.3-5.2-3.3-9.7-6-13.4c-2.7-3.7-5.9-6.5-9.8-8.4c-3.9-2-8.3-2.9-13.3-2.9H79.6V120.4 M108.9,20.8H69.3h-2v2v190.6v2h2h10.4h2
				v-2v-77.3h32l11.6,31.3l2.4,6.3l9,24.2l6,16.2l0.5,1.3h1.4h11.6h2.9l-1-2.7l-5.4-14.2l-12.3-32.7l-0.7-1.9l-12.1-32.2
				c3.3-1.8,6.4-4.1,9.2-7.1c3.2-3.4,6-7.4,8.3-12c2.3-4.6,4.1-9.8,5.4-15.4c1.3-5.7,1.9-11.8,1.9-18.2c0-9.2-1-17.5-3-24.6
				c-2-7.2-4.9-13.3-8.6-18.3c-3.8-5-8.4-8.8-13.8-11.4C121.6,22.1,115.5,20.8,108.9,20.8L108.9,20.8z M81.6,38.6h27.2
				c4.7,0,8.9,0.9,12.4,2.7c3.5,1.8,6.6,4.5,9,7.8c2.5,3.4,4.4,7.7,5.7,12.7c1.3,5,1.9,10.8,1.9,17.2c0,5.2-0.6,10.3-1.7,15.2
				c-1.1,4.8-2.9,9-5.2,12.6c-2.2,3.5-5,6.4-8.4,8.5c-3.3,2.1-7.1,3.1-11.5,3.1H81.6V38.6L81.6,38.6z"/>
		</g>
		<g>
			<polygon fill="#111820" points="249.7,214.4 231.3,136.6 210.1,46.8 174.5,198.2 174.5,198.2 170.7,214.4 157.8,214.4 
				204.5,21.8 215.8,21.8 253.8,178.6 253.9,178.9 262.5,214.4 			"/>
			<path fill="#111820" d="M215.1,22.8l27.1,112l4.2,17.3l2,8.3v0l4.5,18.6l0,0l8.3,34.3h-10.7l-14-59.4l-4.2-17.7l-22.2-93.9
				l-36.4,154.7h0l-3.8,16.2h-10.8l3.6-14.7l42.6-175.9H215.1 M216.6,20.8h-1.6h-9.8h-1.6l-0.4,1.5l-42.6,175.9l-3.6,14.7l-0.6,2.5
				h2.5h10.8h1.6l0.4-1.5l3.5-14.7l0.4-1.5l34.4-146.5l20.2,85.6l4.2,17.7l14,59.4l0.4,1.5h1.6h10.7h2.5l-0.6-2.5l-8.3-34.3
				l-0.1-0.5l0,0l-4.3-17.8v0l-0.1-0.2l-2-8.3l-4.2-17.3L217,22.4L216.6,20.8L216.6,20.8z"/>
		</g>
		<g>
			<path fill="#111820" d="M320.5,178c0.1-0.6,0.3-1.1,0.4-1.7c1.2-4.9,1.9-10.6,2-16.9c0-0.9,0-1.7,0-2.6V21.8h12.4v134.9
				c0,6.5-0.4,12.5-1.3,18l-0.1,0.5l-0.5,0.2c-4.2,1.9-8.2,3.1-11.9,3.7l-1.5,0.2L320.5,178z"/>
			<path fill="#111820" d="M334.3,22.8v133.9c0,6.5-0.4,12.4-1.3,17.9c-4.1,1.9-8,3.1-11.6,3.6c0.1-0.6,0.3-1.1,0.4-1.7
				c1.2-5,1.9-10.7,2-17.1c0-0.9,0-1.8,0-2.7V22.8H334.3 M336.3,20.8h-2H324h-2v2v133.9c0,0.9,0,1.7,0,2.6c-0.1,6.2-0.8,11.8-2,16.7
				c-0.1,0.6-0.3,1.1-0.4,1.6l-0.8,2.9l3-0.4c3.8-0.5,7.9-1.8,12.1-3.7l1-0.4l0.2-1.1c0.9-5.5,1.3-11.7,1.3-18.2V22.8V20.8
				L336.3,20.8z"/>
		</g>
		<g>
			<polygon fill="#111820" points="532.7,214.4 493.1,46.8 464.3,169.2 464.3,169.2 453.7,214.4 440.8,214.4 487.5,21.8 498.9,21.8 
				532.9,162.5 545.5,214.4 			"/>
			<path fill="#111820" d="M498.1,22.8l33.9,139.9l12.3,50.7h-10.7L522.8,168l-4.5-19L493.4,43.7c0,0,0,0,0,0l-0.3-1.2L493,43
				l-29.4,125.2h0l-4.3,18.3l-6.3,27h-10.8l6-24.7l4.4-18.2l35.8-147.7H498.1 M499.6,20.8h-1.6h-9.8h-1.6l-0.4,1.5L450.5,170
				l-4.4,18.2l-6,24.7l-0.6,2.5h2.5h10.8h1.6l0.4-1.5l6.3-27l3.9-16.8l0.4-1.5l27.6-117.4l23.2,98.3l4.5,19l10.7,45.4l0.4,1.5h1.6
				h10.7h2.5l-0.6-2.5l-12.3-50.7L500,22.4L499.6,20.8L499.6,20.8z"/>
		</g>
		<g>
			<polygon fill="#111820" points="424.7,214.4 385.1,46.8 356.3,169.2 356.3,169.2 345.7,214.4 332.8,214.4 379.5,21.8 390.9,21.8 
				424.9,162.5 437.5,214.4 			"/>
			<path fill="#111820" d="M390.1,22.8l33.9,139.9l12.3,50.7h-10.7L414.8,168l-4.5-19L385.4,43.7c0,0,0,0,0,0l-0.3-1.2L385,43
				l-29.4,125.2h0l-4.3,18.3l-6.3,27h-10.8l6-24.7l4.4-18.2l35.8-147.7H390.1 M391.6,20.8h-1.6h-9.8h-1.6l-0.4,1.5L342.5,170
				l-4.4,18.2l-6,24.7l-0.6,2.5h2.5h10.8h1.6l0.4-1.5l6.3-27l3.9-16.8l0.4-1.5l27.6-117.4l23.2,98.3l4.5,19l10.7,45.4l0.4,1.5h1.6
				h10.7h2.5l-0.6-2.5l-12.3-50.7L392,22.4L391.6,20.8L391.6,20.8z"/>
		</g>
	</g>
	<g>
		<g>
			<path fill="#111820" d="M297.5,217c-5.7,0-10.9-1.2-15.5-3.4c-0.4-0.2-0.9-0.4-1.3-0.7c-0.4-0.3-0.9-0.5-1.3-0.8
				c-1-0.6-2-1.3-2.9-2.1l-0.3-0.2c-0.8-0.6-1.5-1.3-2.2-2c-0.2-0.2-0.5-0.5-0.7-0.7l-0.7-0.7l0,0c-0.2-0.3-0.5-0.5-0.7-0.8
				c-0.2-0.3-0.4-0.5-0.7-0.8c-0.4-0.5-0.8-1.1-1.3-1.7l-0.2-0.3v0c-1.4-2-2.6-4.2-3.7-6.6c-1.5-3.2-2.7-6.8-3.8-10.7l-0.2-0.8
				c-1.7-6.8-2.5-14.8-2.5-23.8v-1l1,0h10.5v1c-0.1,2.1,0.3,3.2,0.7,3.8l0.2,0.2l0,0.3c0,0.8,0.1,1.5,0.1,2.3
				c0.4,7.2,1.7,13.4,3.7,18.3l0.2,0.4c0.2,0.5,0.4,0.9,0.6,1.4c0.6,1.4,1.4,2.7,2.1,3.8c1,1.4,2,2.8,3.2,3.9
				c1.3,1.3,2.7,2.3,4.1,3.2c3.3,1.9,7.1,2.9,11.4,2.9c1.7,0,3.4-0.2,5.1-0.7c1.6-0.5,3.2-1.2,4.7-2.1c1.1-0.7,2.2-1.5,3.3-2.5
				c0.3-0.2,0.5-0.5,0.8-0.8l0.2-0.2c0.5-0.5,0.9-0.9,1.2-1.4c0.4-0.5,0.8-1,1.2-1.5c0.5-0.7,0.9-1.4,1.3-2
				c2.1-3.3,3.8-7.4,5.1-12.2l0-0.1c0.2-0.6,0.3-1.1,0.4-1.7c1.2-4.9,1.9-10.6,2-16.9c0-0.9,0-1.7,0-2.6V21.8h12.4v134.9
				c0,6.4-0.4,12.5-1.3,18l0,0.1c-0.4,2.6-0.9,5.2-1.5,7.7c-0.8,3.3-1.8,6.3-2.9,9.1c-0.4,1.1-0.9,2.2-1.4,3.3l-0.1,0.2
				c-0.3,0.7-0.6,1.3-1,2l-0.1,0.2c-0.6,1.1-1.2,2.1-1.8,3.1c-0.2,0.3-0.4,0.6-0.5,0.8l-0.2,0.4c-0.2,0.2-0.3,0.5-0.5,0.7
				c-0.4,0.6-0.9,1.2-1.3,1.8c-0.5,0.6-0.9,1.2-1.4,1.7l-0.7,0.8c-0.4,0.5-0.9,0.9-1.3,1.3c-0.1,0.1-0.6,0.6-0.6,0.6
				c-0.5,0.4-0.9,0.8-1.4,1.2c-0.5,0.4-0.9,0.8-1.4,1.1c-0.2,0.2-0.5,0.4-0.7,0.5c-0.6,0.4-1.2,0.8-1.7,1.1
				c-0.3,0.2-0.6,0.3-0.8,0.5c-0.9,0.5-1.8,1-2.7,1.4c-0.9,0.4-1.8,0.8-2.8,1.1c-0.8,0.3-1.6,0.5-2.4,0.7
				C302.5,216.7,300,217,297.5,217z"/>
			<path fill="#111820" d="M334.3,22.8v133.9c0,6.5-0.4,12.4-1.3,17.9v0c-0.4,2.6-0.9,5.2-1.5,7.6c-0.8,3.2-1.8,6.2-2.9,9
				c-0.5,1.2-1,2.3-1.5,3.4v0c-0.4,0.7-0.7,1.5-1.1,2.1v0c-0.6,1-1.1,2-1.7,3c-0.2,0.3-0.4,0.6-0.6,0.9c-0.2,0.3-0.4,0.6-0.6,0.9
				c-0.4,0.6-0.9,1.2-1.3,1.8c-0.4,0.6-0.9,1.1-1.3,1.6c-0.2,0.3-0.5,0.5-0.7,0.8c-0.4,0.5-0.8,0.9-1.2,1.3
				c-0.2,0.2-0.4,0.4-0.6,0.6c-0.4,0.4-0.9,0.8-1.3,1.2c-0.5,0.4-0.9,0.7-1.4,1.1c-0.2,0.2-0.5,0.3-0.7,0.5
				c-0.5,0.4-1.1,0.7-1.6,1.1c-0.3,0.2-0.6,0.3-0.8,0.5c-0.9,0.5-1.7,0.9-2.6,1.3c-0.9,0.4-1.8,0.7-2.7,1c-0.8,0.2-1.5,0.5-2.3,0.7
				c-2.3,0.6-4.7,0.8-7.1,0.8c-5.5,0-10.6-1.1-15.1-3.3c-0.4-0.2-0.8-0.4-1.3-0.6c-0.4-0.2-0.8-0.5-1.2-0.7
				c-1.1-0.7-2.1-1.4-3.1-2.2c0,0,0,0,0,0c-0.7-0.6-1.5-1.3-2.1-2c-0.2-0.2-0.5-0.5-0.7-0.7c0,0,0,0,0,0c-0.5-0.5-0.9-1-1.3-1.5
				c-0.2-0.3-0.4-0.5-0.6-0.8c-0.4-0.5-0.8-1.1-1.2-1.6v0c-1.4-2-2.7-4.2-3.8-6.7c-1.5-3.1-2.7-6.7-3.7-10.5
				c-0.1-0.2-0.1-0.5-0.2-0.8c-1.7-6.7-2.5-14.6-2.5-23.6v0h9.5v0c-0.1,2.2,0.3,3.5,0.9,4.4c0,0.8,0.1,1.5,0.1,2.3
				c0.5,7.6,1.8,13.9,3.9,19v0h0c0.2,0.5,0.4,1,0.6,1.5c0.7,1.4,1.4,2.7,2.2,3.9c1,1.5,2.1,2.9,3.3,4.1c1.3,1.3,2.8,2.4,4.3,3.4
				c3.4,2,7.4,3,11.9,3c1.8,0,3.6-0.2,5.4-0.7c1.7-0.5,3.4-1.2,5-2.2c1.2-0.7,2.4-1.6,3.4-2.6c0.4-0.3,0.7-0.7,1.1-1v0
				c0.4-0.5,0.9-0.9,1.3-1.4s0.8-1,1.2-1.6c0.5-0.7,0.9-1.4,1.4-2.1c2.2-3.5,3.9-7.6,5.2-12.6v0c0.1-0.6,0.3-1.1,0.4-1.7
				c1.2-5,1.9-10.7,2-17.1c0-0.9,0-1.8,0-2.7V22.8H334.3 M336.3,20.8h-2H324h-2v2v133.9c0,0.9,0,1.7,0,2.6c-0.1,6.2-0.8,11.8-2,16.7
				c-0.1,0.6-0.3,1.1-0.4,1.6l-0.1,0.3v0c-1.2,4.6-2.9,8.5-4.9,11.8c-0.4,0.6-0.8,1.3-1.3,2c-0.3,0.5-0.7,0.9-1.1,1.5
				c-0.3,0.4-0.7,0.8-1.2,1.3l-0.5,0.5c-0.2,0.2-0.4,0.3-0.5,0.5c-1,0.9-2,1.7-3.1,2.4c-1.4,0.9-2.9,1.5-4.5,2
				c-1.5,0.4-3.2,0.7-4.8,0.7c-4.1,0-7.8-0.9-10.9-2.7c-1.4-0.8-2.7-1.8-3.9-3c-1.1-1.1-2.1-2.4-3.1-3.7c-0.7-1.1-1.4-2.4-2.1-3.7
				c-0.2-0.4-0.4-0.8-0.6-1.4l-0.4-0.9c-1.8-4.7-3-10.6-3.4-17.5c0-0.7-0.1-1.5-0.1-2.2l0-0.6l-0.3-0.5c-0.3-0.4-0.7-1.3-0.6-3.1
				l0-0.1v-0.1v-2l-2,0h-9.5h-2v2c0,9.1,0.9,17.2,2.5,24.1c0,0.1,0.1,0.3,0.1,0.4c0,0.1,0.1,0.2,0.1,0.3c1,4,2.3,7.7,3.8,10.9
				c1.1,2.3,2.3,4.5,3.6,6.5v0l0.4,0.5c0.5,0.7,0.9,1.2,1.3,1.7c0.2,0.3,0.4,0.6,0.7,0.8c0,0,0.1,0.1,0.1,0.1l-0.1,0.1l1.4,1.4
				c0.1,0.1,0.2,0.3,0.4,0.4l0.2,0.2h0c0,0,0.1,0.1,0.1,0.1c0.7,0.7,1.5,1.4,2.3,2.1l0.6,0.5h0c0.9,0.7,1.8,1.3,2.7,1.9
				c0.4,0.3,0.8,0.5,1.3,0.8l0,0l0,0c0.4,0.2,0.9,0.5,1.3,0.7c4.8,2.4,10.2,3.5,16,3.5c2.6,0,5.2-0.3,7.6-0.9
				c0.8-0.2,1.6-0.4,2.4-0.7c0.9-0.3,1.9-0.7,2.8-1.1c0.9-0.4,1.9-0.9,2.7-1.4l0,0l0,0c0.3-0.2,0.6-0.3,0.8-0.5
				c0.6-0.3,1.1-0.7,1.8-1.2c0.2-0.2,0.5-0.3,0.7-0.5l0,0l0.1,0c0.4-0.3,0.9-0.7,1.4-1.1c0.5-0.4,1-0.8,1.4-1.3l0,0l0,0
				c0.1-0.1,0.2-0.2,0.3-0.3c0.1-0.1,0.2-0.2,0.4-0.4c0.5-0.5,0.9-1,1.3-1.4l0.7-0.8c0.5-0.6,1-1.2,1.4-1.8c0.4-0.6,0.9-1.2,1.3-1.8
				c0.2-0.3,0.3-0.5,0.5-0.8l0.1-0.2l0.1-0.2c0.2-0.3,0.4-0.6,0.5-0.9c0.6-0.9,1.2-2,1.8-3.1l0.2-0.4v0c0.3-0.6,0.6-1.2,0.9-1.8
				l0.2-0.4v0c0.5-1,0.9-2.1,1.3-3.2c1.1-2.8,2.1-5.9,2.9-9.2c0.6-2.5,1.2-5.1,1.6-7.8l0-0.2v0c0.8-5.5,1.3-11.6,1.3-18V22.8V20.8
				L336.3,20.8z"/>
		</g>
		<g>
			<path fill="#111820" d="M143.9,214.4l-29.5-79.3H80.6v79.3H68.3V21.8h40.6c6.5,0,12.4,1.3,17.7,3.8c5.2,2.5,9.8,6.2,13.4,11.1
				c3.7,4.8,6.5,10.9,8.5,17.9c1.9,7,2.9,15.2,2.9,24.4c0,6.3-0.6,12.3-1.9,18c-1.2,5.6-3,10.7-5.3,15.2c-2.3,4.5-5,8.5-8.2,11.8
				c-2.9,3.1-6.2,5.5-9.7,7.3l25.5,67.6l5.9,15.6H143.9z M111.2,119.4c4.5,0,8.6-1.1,12-3.2c3.5-2.2,6.4-5.1,8.7-8.8
				c2.3-3.7,4.1-8,5.3-12.9c1.2-4.9,1.8-10.1,1.8-15.4c0-6.4-0.7-12.3-2-17.4c-1.3-5.1-3.3-9.5-5.8-13c-2.5-3.5-5.7-6.3-9.4-8.1
				c-3.7-1.9-8-2.8-12.9-2.8H80.6v81.8H111.2z"/>
			<path fill="#111820" d="M108.9,22.8c6.4,0,12.1,1.2,17.2,3.7c5.1,2.4,9.5,6,13.1,10.8c3.6,4.8,6.4,10.6,8.3,17.6
				c1.9,7,2.9,15,2.9,24.1c0,6.3-0.6,12.2-1.8,17.7c-1.2,5.5-3,10.5-5.2,15c-2.2,4.4-4.9,8.3-8,11.5c-3.1,3.2-6.5,5.7-10.3,7.5
				l12.8,33.9l0.7,1.9l12.3,32.7l5.4,14.2h-11.6l-6-16.2l-9-24.2l-2.4-6.4l-12.1-32.6H79.6v79.3H69.3V22.8H108.9 M79.6,120.4h31.6
				c4.8,0,8.9-1.1,12.5-3.4c3.6-2.3,6.6-5.3,9-9.1c2.4-3.8,4.2-8.2,5.4-13.2c1.2-5,1.8-10.2,1.8-15.6c0-6.6-0.7-12.4-2-17.7
				c-1.3-5.2-3.3-9.7-6-13.4c-2.7-3.7-5.9-6.5-9.8-8.4c-3.9-2-8.3-2.9-13.3-2.9H79.6V120.4 M108.9,20.8H69.3h-2v2v190.6v2h2h10.4h2
				v-2v-77.3h32l11.6,31.3l2.4,6.3l9,24.2l6,16.2l0.5,1.3h1.4h11.6h2.9l-1-2.7l-5.4-14.2l-12.3-32.7l-0.7-1.9l-12.1-32.2
				c3.3-1.8,6.4-4.1,9.2-7.1c3.2-3.4,6-7.4,8.3-12c2.3-4.6,4.1-9.8,5.4-15.4c1.3-5.7,1.9-11.8,1.9-18.2c0-9.2-1-17.5-3-24.6
				c-2-7.2-4.9-13.3-8.6-18.3c-3.8-5-8.4-8.8-13.8-11.4C121.6,22.1,115.5,20.8,108.9,20.8L108.9,20.8z M81.6,38.6h27.2
				c4.7,0,8.9,0.9,12.4,2.7c3.5,1.8,6.6,4.5,9,7.8c2.5,3.4,4.4,7.7,5.7,12.7c1.3,5,1.9,10.8,1.9,17.2c0,5.2-0.6,10.3-1.7,15.2
				c-1.1,4.8-2.9,9-5.2,12.6c-2.2,3.5-5,6.4-8.4,8.5c-3.3,2.1-7.1,3.1-11.5,3.1H81.6V38.6L81.6,38.6z"/>
		</g>
		<g>
			<polygon fill="#111820" points="249.7,214.4 231.3,136.6 210.1,46.8 174.5,198.2 174.5,198.2 170.7,214.4 157.8,214.4 
				204.5,21.8 215.8,21.8 253.8,178.6 253.9,178.9 262.5,214.4 			"/>
			<path fill="#111820" d="M215.1,22.8l27.1,112l4.2,17.3l2,8.3v0l4.5,18.6l0,0l8.3,34.3h-10.7l-14-59.4l-4.2-17.7l-22.2-93.9
				l-36.4,154.7h0l-3.8,16.2h-10.8l3.6-14.7l42.6-175.9H215.1 M216.6,20.8h-1.6h-9.8h-1.6l-0.4,1.5l-42.6,175.9l-3.6,14.7l-0.6,2.5
				h2.5h10.8h1.6l0.4-1.5l3.5-14.7l0.4-1.5l34.4-146.5l20.2,85.6l4.2,17.7l14,59.4l0.4,1.5h1.6h10.7h2.5l-0.6-2.5l-8.3-34.3
				l-0.1-0.5l0,0l-4.3-17.8v0l-0.1-0.2l-2-8.3l-4.2-17.3L217,22.4L216.6,20.8L216.6,20.8z"/>
		</g>
		<g>
			<polygon fill="#111820" points="532.7,214.4 493.1,46.8 464.3,169.2 464.3,169.2 453.7,214.4 440.8,214.4 487.5,21.8 498.9,21.8 
				532.9,162.5 545.5,214.4 			"/>
			<path fill="#111820" d="M498.1,22.8l33.9,139.9l12.3,50.7h-10.7L522.8,168l-4.5-19L493.4,43.7c0,0,0,0,0,0l-0.3-1.2L493,43
				l-29.4,125.2h0l-4.3,18.3l-6.3,27h-10.8l6-24.7l4.4-18.2l35.8-147.7H498.1 M499.6,20.8h-1.6h-9.8h-1.6l-0.4,1.5L450.5,170
				l-4.4,18.2l-6,24.7l-0.6,2.5h2.5h10.8h1.6l0.4-1.5l6.3-27l3.9-16.8l0.4-1.5l27.6-117.4l23.2,98.3l4.5,19l10.7,45.4l0.4,1.5h1.6
				h10.7h2.5l-0.6-2.5l-12.3-50.7L500,22.4L499.6,20.8L499.6,20.8z"/>
		</g>
		<g>
			<polygon fill="#111820" points="424.7,214.4 385.1,46.8 356.3,169.2 356.3,169.2 345.7,214.4 332.8,214.4 379.5,21.8 390.9,21.8 
				424.9,162.5 437.5,214.4 			"/>
			<path fill="#111820" d="M390.1,22.8l33.9,139.9l12.3,50.7h-10.7L414.8,168l-4.5-19L385.4,43.7c0,0,0,0,0,0l-0.3-1.2L385,43
				l-29.4,125.2h0l-4.3,18.3l-6.3,27h-10.8l6-24.7l4.4-18.2l35.8-147.7H390.1 M391.6,20.8h-1.6h-9.8h-1.6l-0.4,1.5L342.5,170
				l-4.4,18.2l-6,24.7l-0.6,2.5h2.5h10.8h1.6l0.4-1.5l6.3-27l3.9-16.8l0.4-1.5l27.6-117.4l23.2,98.3l4.5,19l10.7,45.4l0.4,1.5h1.6
				h10.7h2.5l-0.6-2.5l-12.3-50.7L392,22.4L391.6,20.8L391.6,20.8z"/>
		</g>
	</g>
	<g>
		<path fill="#111820" d="M143.9,214.4l-29.5-79.3H80.6v79.3H68.3V21.8h40.6c6.5,0,12.4,1.3,17.7,3.8c5.2,2.5,9.8,6.2,13.4,11.1
			c3.7,4.8,6.5,10.9,8.5,17.9c1.9,7,2.9,15.2,2.9,24.4c0,6.3-0.6,12.3-1.9,18c-1.2,5.6-3,10.7-5.3,15.2c-2.3,4.5-5,8.5-8.2,11.8
			c-2.9,3.1-6.2,5.5-9.7,7.3l25.5,67.6l5.9,15.6H143.9z M111.2,119.4c4.5,0,8.6-1.1,12-3.2c3.5-2.2,6.4-5.1,8.7-8.8
			c2.3-3.7,4.1-8,5.3-12.9c1.2-4.9,1.8-10.1,1.8-15.4c0-6.4-0.7-12.3-2-17.4c-1.3-5.1-3.3-9.5-5.8-13c-2.5-3.5-5.7-6.3-9.4-8.1
			c-3.7-1.9-8-2.8-12.9-2.8H80.6v81.8H111.2z"/>
		<path fill="#111820" d="M108.9,22.8c6.4,0,12.1,1.2,17.2,3.7c5.1,2.4,9.5,6,13.1,10.8c3.6,4.8,6.4,10.6,8.3,17.6
			c1.9,7,2.9,15,2.9,24.1c0,6.3-0.6,12.2-1.8,17.7c-1.2,5.5-3,10.5-5.2,15c-2.2,4.4-4.9,8.3-8,11.5c-3.1,3.2-6.5,5.7-10.3,7.5
			l12.8,33.9l0.7,1.9l12.3,32.7l5.4,14.2h-11.6l-6-16.2l-9-24.2l-2.4-6.4l-12.1-32.6H79.6v79.3H69.3V22.8H108.9 M79.6,120.4h31.6
			c4.8,0,8.9-1.1,12.5-3.4c3.6-2.3,6.6-5.3,9-9.1c2.4-3.8,4.2-8.2,5.4-13.2c1.2-5,1.8-10.2,1.8-15.6c0-6.6-0.7-12.4-2-17.7
			c-1.3-5.2-3.3-9.7-6-13.4c-2.7-3.7-5.9-6.5-9.8-8.4c-3.9-2-8.3-2.9-13.3-2.9H79.6V120.4 M108.9,20.8H69.3h-2v2v190.6v2h2h10.4h2
			v-2v-77.3h32l11.6,31.3l2.4,6.3l9,24.2l6,16.2l0.5,1.3h1.4h11.6h2.9l-1-2.7l-5.4-14.2l-12.3-32.7l-0.7-1.9l-12.1-32.2
			c3.3-1.8,6.4-4.1,9.2-7.1c3.2-3.4,6-7.4,8.3-12c2.3-4.6,4.1-9.8,5.4-15.4c1.3-5.7,1.9-11.8,1.9-18.2c0-9.2-1-17.5-3-24.6
			c-2-7.2-4.9-13.3-8.6-18.3c-3.8-5-8.4-8.8-13.8-11.4C121.6,22.1,115.5,20.8,108.9,20.8L108.9,20.8z M81.6,38.6h27.2
			c4.7,0,8.9,0.9,12.4,2.7c3.5,1.8,6.6,4.5,9,7.8c2.5,3.4,4.4,7.7,5.7,12.7c1.3,5,1.9,10.8,1.9,17.2c0,5.2-0.6,10.3-1.7,15.2
			c-1.1,4.8-2.9,9-5.2,12.6c-2.2,3.5-5,6.4-8.4,8.5c-3.3,2.1-7.1,3.1-11.5,3.1H81.6V38.6L81.6,38.6z"/>
	</g>
	<g>
		<polygon fill="#111820" points="249.7,214.4 231.3,136.6 210.1,46.8 174.5,198.2 174.5,198.2 170.7,214.4 157.8,214.4 204.5,21.8 
			215.8,21.8 253.8,178.6 253.9,178.9 262.5,214.4 		"/>
		<path fill="#111820" d="M215.1,22.8l27.1,112l4.2,17.3l2,8.3v0l4.5,18.6l0,0l8.3,34.3h-10.7l-14-59.4l-4.2-17.7l-22.2-93.9
			l-36.4,154.7h0l-3.8,16.2h-10.8l3.6-14.7l42.6-175.9H215.1 M216.6,20.8h-1.6h-9.8h-1.6l-0.4,1.5l-42.6,175.9l-3.6,14.7l-0.6,2.5
			h2.5h10.8h1.6l0.4-1.5l3.5-14.7l0.4-1.5l34.4-146.5l20.2,85.6l4.2,17.7l14,59.4l0.4,1.5h1.6h10.7h2.5l-0.6-2.5l-8.3-34.3l-0.1-0.5
			l0,0l-4.3-17.8v0l-0.1-0.2l-2-8.3l-4.2-17.3L217,22.4L216.6,20.8L216.6,20.8z"/>
	</g>
	<g>
		<polygon fill="#111820" points="532.7,214.4 493.1,46.8 464.3,169.2 464.3,169.2 453.7,214.4 440.8,214.4 487.5,21.8 498.9,21.8 
			532.9,162.5 545.5,214.4 		"/>
		<path fill="#111820" d="M498.1,22.8l33.9,139.9l12.3,50.7h-10.7L522.8,168l-4.5-19L493.4,43.7c0,0,0,0,0,0l-0.3-1.2L493,43
			l-29.4,125.2h0l-4.3,18.3l-6.3,27h-10.8l6-24.7l4.4-18.2l35.8-147.7H498.1 M499.6,20.8h-1.6h-9.8h-1.6l-0.4,1.5L450.5,170
			l-4.4,18.2l-6,24.7l-0.6,2.5h2.5h10.8h1.6l0.4-1.5l6.3-27l3.9-16.8l0.4-1.5l27.6-117.4l23.2,98.3l4.5,19l10.7,45.4l0.4,1.5h1.6
			h10.7h2.5l-0.6-2.5l-12.3-50.7L500,22.4L499.6,20.8L499.6,20.8z"/>
	</g>
	<g>
		<polygon fill="#111820" points="424.7,214.4 385.1,46.8 356.3,169.2 356.3,169.2 345.7,214.4 332.8,214.4 379.5,21.8 390.9,21.8 
			424.9,162.5 437.5,214.4 		"/>
		<path fill="#111820" d="M390.1,22.8l33.9,139.9l12.3,50.7h-10.7L414.8,168l-4.5-19L385.4,43.7c0,0,0,0,0,0l-0.3-1.2L385,43
			l-29.4,125.2h0l-4.3,18.3l-6.3,27h-10.8l6-24.7l4.4-18.2l35.8-147.7H390.1 M391.6,20.8h-1.6h-9.8h-1.6l-0.4,1.5L342.5,170
			l-4.4,18.2l-6,24.7l-0.6,2.5h2.5h10.8h1.6l0.4-1.5l6.3-27l3.9-16.8l0.4-1.5l27.6-117.4l23.2,98.3l4.5,19l10.7,45.4l0.4,1.5h1.6
			h10.7h2.5l-0.6-2.5l-12.3-50.7L392,22.4L391.6,20.8L391.6,20.8z"/>
	</g>
	<g>
		<path fill="#94C0E9" stroke="#94C0E9" stroke-width="4" stroke-miterlimit="10" d="M629.9,257.6l-7.7,12.8l0.9-14.9
			c0.9-14.5-10.4-47.5-19-64.8l-0.1-0.1c-2-4.6-4-11.9-4.8-18.1c-1.2-8.9-0.3-14.6,2.9-17.4c1.6-1.4,5.1-3.1,10.7,0.5l0.1,0.1
			c9.7,6.8,13.8,11.6,13.6,15.9c-0.1,1.3-0.6,3.7-3.5,5.3l-0.4,0.2l-0.3,0.1c-0.9,0.5-4,4.5-1.9,10.2l0.1,0.2
			c7.2,23.1,11,41.6,11.4,55.1C632.2,252.8,630.4,256.7,629.9,257.6z"/>
	</g>
	<g>
		<path fill="#94C0E9" stroke="#94C0E9" stroke-width="4" stroke-miterlimit="10" d="M401.7,160.8c-0.6,0.3-1.2,0.5-1.7,0.7
			c-0.2,0.1-0.5,0.2-0.7,0.3c-0.9,0.3-1.7,0.7-2.4,1c0-0.2,0-0.4,0-0.6c0-0.3,0-0.6,0-1c0-0.3,0-0.6,0.1-0.9
			c0.1-1.1,0.3-2.3,0.6-3.6c0.1-0.3,0.1-0.7,0.2-1c0.2-0.8,0.4-1.6,0.7-2.4c0.1-0.4,0.2-0.7,0.4-1.1c0-0.1,0-0.1,0.1-0.2
			c0.1-0.4,0.3-0.8,0.4-1.2c0.2-0.5,0.3-1,0.6-1.4c0.2-0.4,0.3-0.9,0.5-1.4c0,0,0,0,0,0c0.2-0.4,0.4-0.9,0.6-1.3
			c0.2-0.5,0.5-1,0.7-1.5c0.2-0.3,0.3-0.7,0.5-1c0.1-0.2,0.2-0.5,0.4-0.7c0.1-0.3,0.3-0.6,0.5-0.9c1-2,2.2-4,3.4-6c0,0,0,0,0,0
			c0.3-0.4,0.6-0.9,0.8-1.3c0.9-1.3,1.8-2.7,2.8-4c0.3-0.4,0.6-0.9,1-1.3c1-1.3,2-2.5,3.1-3.7c0.7-0.8,1.5-1.6,2.2-2.4
			c0.4-0.4,0.8-0.8,1.2-1.2c0.4-0.4,0.8-0.8,1.2-1.1c0,0,0.7-0.4,1.1-0.2c9.1,2.9,10.7,3.4,11.1,15.3c0,1.1-0.2,2.2-0.7,3.1
			c-0.1,0.2-0.2,0.5-0.4,0.7c-0.1,0.1-0.2,0.3-0.2,0.4c-0.1,0.2-0.3,0.5-0.5,0.8c-0.2,0.3-0.4,0.6-0.6,0.8c-0.3,0.4-0.6,0.8-0.9,1.1
			c-0.2,0.2-0.4,0.5-0.6,0.7c-0.6,0.7-1.2,1.3-1.9,1.9c-0.2,0.2-0.5,0.5-0.7,0.7c-0.4,0.4-0.9,0.8-1.4,1.2c-0.3,0.2-0.6,0.5-0.8,0.7
			c-0.3,0.3-0.7,0.5-1,0.8c-0.4,0.3-0.8,0.6-1.2,0.9c-2.5,1.8-5.1,3.5-7.9,5c-0.4,0.2-0.8,0.4-1.1,0.6c0,0,0,0,0,0
			c-1.4,0.8-2.8,1.5-4.2,2.2c-0.5,0.2-1,0.5-1.5,0.7c-0.6,0.3-1.2,0.6-1.8,0.9c-0.3,0.1-0.6,0.3-0.9,0.4
			C402.3,160.6,402,160.7,401.7,160.8z M559.8,99.9c-0.6-2.4-1.5-4.7-2.3-6.9l-0.1-0.2c-19.4-49-22.6-71.6-22.6-71.9l-0.1-0.5
			c-1.6-8.6-2.5-16.2-5.7-17.8c-1.8-0.9-3.8-0.8-6,0.3c-1.9,0.9-3.6,7.6-5,10.9c-1.9,4.7-3,10.6-2.6,14.8c0.2,2.3,4,8.4,5.1,9
			c14,39.4,24.1,70.2,26,83.5c0.1,0.8,0.2,1.4,0.4,1.9c0.3,1,1.3,6.5,0.4,12.5c-0.5,3.3-1.8,6-3,8.6c-2.1,4.6-9.2,7.8-9.2,7.8
			c-1.4,0.7-33.6,8.5-70.5,16.3h0c-1.8,0.4-3.6,0.8-5.5,1.2c-1.9,0.4-3.7,0.8-5.5,1.2h0c-9.6,2-18.5,3.8-25.9,5.2
			c-3.8,0.7-7.2,1.4-10,1.9c-4.2,0.8-7.1,1.3-8.2,1.4c-1.7-0.4-4.9-1.8-6.1-3c0.7-0.6,2.7-2,7.6-3.7l0.4-0.2
			c1.6-0.7,3.1-1.4,4.5-2.2c3.3-1.6,6.4-3.4,9.2-5.1c15.5-9.4,24.3-20,25.8-31l0-0.3c0.6-3.8-2.8-20.4-5-24.7
			c-2.3-4.4-7.8-4.8-14.1-5.2c-3.1-0.2-6.3-0.4-9.3-1.1c-0.1-0.1-0.2-0.1-0.4-0.2c-2.8-1.3-5.7-2.4-8.4-1.3c-1,0.4-1.8,1.1-2.4,2
			c-0.3,0.3-0.6,0.6-0.9,0.9c-2.6,2.6-5.2,5.8-7.8,9.4c-10.7,14.7-20.4,36.1-20.6,53.4c-4.6,1.2-10.4,1.8-14.9,0.2
			c-2.8-1-4.6-2.8-5.6-5.4c-2-10.8,0.9-16.4,2.7-19.7c1-1.9,2.9-5.6,0.1-8.3c-0.1-0.1-0.2-0.2-0.4-0.3c-1.2-1-4.1-2.7-9.6-1
			c-2.2,0.7-4.8,1.9-8,3.9l-0.4,0.3l-0.3,0.4c-2.5,2.7-3.4,6.5-2.7,11.4c-2,1.5-5.1,3.4-8.5,5.3c-3.4,1.9-7.1,3.9-10.4,5.5
			c-4.1,2-7.7,3.4-9.6,3.6c-3-2.6-3.7-3.5-3.6-5.6l0-1.9l-1.4-1.2c-4-3.4-10-0.3-12.9,3.1c-3.2,3.7-1.8,6.7-0.5,8
			c-5.2,2.7-17.7,6.8-24.4,2.5c0,0,0,0,0,0c-0.1,0-0.2-0.1-0.4-0.2c-0.9-0.6-2.8-2.5-2.5-6.6v0c0-0.1,0-0.1,0-0.2
			c0-0.5,0-1.1,0.1-1.7c0.8-4.9-2.2-11.6-7.6-16.8c-5.2-5.1-11.6-7.6-17.9-7.4c-1.2,0-2.3,0.2-3.5,0.4c-2.3,0.2-4.4,0.6-6.4,1.1
			c-8,1.9-13.3,5.4-15.8,10.7c-4.5,9.4,2.1,20.1,2.8,21.3c0.8,1.6,1.4,9.1-0.8,14.6c-1.1,2.6-2.5,4.3-4.3,4.9
			c-16.3,4.6-29.6,7.6-40.4,9.4h0c-4,0.7-7.7,1.2-11.1,1.5c-4.5,0.5-8.4,0.6-11.8,0.5c-5.1-0.1-9.1-0.8-12.3-2
			c-6.4-2.3-9.6-6.4-11.3-11.7c-0.5-1.7-1.3-3.1-1.9-4.4c-1.3-2.5-1.5-4,2.4-6.8l1.8-1.3l9-6.5l0.1-0.1c0.9-0.7,0.3-2.1-0.8-1.9
			l-10.6,2.1l-2.6,0.5c-7,1.4-16.1,7.8-14.8,16.2c0.3,2.2,5.3,21.5,10.1,27.1c6.1,7,7.4,8.6,17.6,6.9c9.3-1.5,17.7-5.5,32.2-7.2
			c15.4-1.8,26.7,2.5,34.3,2.2c9.8-0.4,16.3-0.6,21.3-6.5l0.3-0.4c2.8-4.1,16.6-25.5,12-36.6l-0.2-0.5L238,168
			c-2.9-3.5-4.2-7.3-3.4-10.1c0.4-1.5,1.4-2.8,2.9-3.9c0.9-0.7,2-1.2,3.3-1.8c1.2-0.4,4.5-1.1,6.6-0.1c0.2,0.1,0.4,0.2,0.5,0.3
			c1.6,1.2,1.8,4.1,1.7,6.3c-0.1,0.6-0.2,1.1-0.2,1.7v0c-1,9.2,1.1,14.9,4.5,18.6l0,0c2.5,2.7,5.7,4.3,8.8,5.3c0,0,0.1,0,0.4,0.1
			c1.5,0.4,7,2,11.9,2.1h0c0.2,0,0.4,0,0.6,0h0c11.4,0.3,27.1-2.9,32.2-8.1c0.6-0.6,1.1-1.3,1.4-1.9c0.6,0.3,1.4,0.6,2.2,0.9
			c3,1,6.4,1.2,10.1,0.6c3.6-0.5,7.5-1.7,11.6-3.6c3.6-1.6,7.4-3.8,11.3-6.4c0.2,0.5,0.5,1,0.8,1.5c0.7,1,1.5,2.1,2.6,3.1
			c1.6,1.5,3.7,3.2,6.1,4.8c6.4,4.3,10.7,9,18.6,8.4v0c2.3,0.2,7.9,0,13.8-1.5c3.8,5.9,10,9.7,18.3,11.1l0.3,0.1h0.3
			c2.3,0,8.2-0.8,16.1-2c3.1-0.5,6.5-1.1,10.2-1.7c5.4-1,11.4-2.1,17.5-3.3h0c3.7-0.7,7.4-1.5,11.2-2.2
			c25.4-5.2,89.5-23.5,89.8-23.6c3.1-1.5,5.6-3.2,7.9-5.1C566.5,150.8,569.2,138.5,559.8,99.9z"/>
	</g>
	<g>
		<path fill="#94C0E9" stroke="#94C0E9" stroke-width="4" stroke-miterlimit="10" d="M102.8,155.6c-1.3,1.3-2.2,2.5-3.2,3.9
			c-5,6.7-9.8,11.2-31.1,12.7c-1.1,0.1-2.1,0.1-3.2,0.1c-28.3,0-56.9-25.2-61-38.7c-4.3-14.3-2.9-19.1,7.6-27.1l0.7-0.5l0.8-0.2
			c6-1.4,10,0.1,12.4,1.6c4.6,2.9,5.6,7.4,5.7,7.9l0.8,3.9c0.4,1.7-1.4,3-2.9,2.3l-3.5-1.7c-4-2-5.9-2-6.5-2
			c-0.1,0.6,0.1,1.9,0.8,3.3l0.1,0.2c0.5,1,0.8,2.1,1.1,3.4c1.8,6.4,5,18.4,32.6,28.9c9.7,3.9,18.1,4.2,24.9,0.9
			c5.3-2.5,7.9-6.4,8.6-7.8c-1.2-3.4-8.7-15.2-23.9-25c-9.8-6.3-20.3-18.5-20.7-23.8c-0.2-2.7,0.6-5.1,2.4-6.7l0.2-0.2
			c14.3-11.4,27.6-9.7,31.3-8.9c4.2,0.9,7.4,2.7,9,5.2c2.9,2.7,6.2,5.3,7.6,6.1c3.1-0.2,6.6,1.9,8.2,4.4c1.8,2.7,1.5,5.9-0.7,8.2
			c-6,6.6-14.2,2.2-25.4-7.1c-8.1-1.9-13.9-0.7-16.4,0.4l0.1,0.2l-0.6,1c1.1,1.6,5.1,6,19.8,14.1l0.4,0.2
			c21.3,15.3,29,23.2,29.6,30.1C108.6,149.7,105.2,153.1,102.8,155.6z"/>
	</g>
	<polygon points="81.6,106.8 67.3,104.4 67.3,67.2 81.6,67.2 	"/>
	<polygon points="81.7,183.9 67.2,183.9 67.2,146.6 81.6,145.4 	"/>
	<polygon points="121.9,158.1 136,154 143.9,175.4 129.4,178.2 	"/>
	<path stroke="#000000" stroke-width="2" stroke-miterlimit="10" d="M176.8,188.4l-11.2-6l-4.2,17.2l-3.6,14.9h12.8L176.8,188.4z"/>
	<g>
		<polygon points="440.2,215 444,199.4 454.8,155 466.7,161.4 454,215 		"/>
		<path d="M455.1,155.8l11,5.9l-12.5,52.8h-12.8l3.6-14.9L455.1,155.8 M454.5,154.3l-0.3,1.3l-10.7,43.7l-3.6,14.9l-0.3,1.2h1.3
			h12.8h0.8l0.2-0.8l12.5-52.8l0.2-0.7l-0.7-0.4l-11-5.9L454.5,154.3L454.5,154.3z"/>
	</g>
	<g>
		<polygon points="407.6,141.9 417.3,131 427.3,172.2 415.4,174.8 		"/>
		<path d="M416.8,133l9.3,38.4l-10,2.2l-7.4-31.5L416.8,133 M417.8,128.9l-2.5,2.9l-8.1,9.1l-0.7,0.8l0.2,1l7.4,31.5l0.5,1.9
			l1.9-0.4l10-2.2l2-0.4l-0.5-2l-9.3-38.4L417.8,128.9L417.8,128.9z"/>
	</g>
	<path fill="#94C0E9" stroke="#94C0E9" stroke-width="4" stroke-miterlimit="10" d="M249.2,198.6c0,0-7.1,2.5-3.5,12.4
		c3.5,9.9,8.5,22.3,41.9,15.7c29.7-5.9,26.5-13.4,22.8-16.1c-0.6-0.5-1.4-0.3-2,0.3c-7.2,7.6-60.6,3.9-58.8-5.1
		C251.4,196.3,249.2,198.6,249.2,198.6z"/>
	<path fill="#94C0E9" stroke="#94C0E9" stroke-width="4" stroke-miterlimit="10" d="M23.8,169.5C20.5,163,53,197.7,69.4,187
		c18.9-12.3,19.8-5.8,14.3,4.8c-3.3,6.4-17.6,16-41,2.2C33.6,188.6,27.9,177.4,23.8,169.5z"/>
	<polygon fill="#FFFFFE" points="136.4,155.1 142.9,172.3 153.8,167 147,151.2 	"/>
	<path fill="#94C0E9" stroke="#94C0E9" stroke-width="4" stroke-miterlimit="10" d="M326.8,210.1c0,0,21.2-5.9,26.5,10
		c0,15.6-7.3,5.1-10.4,1c-3-4.1-11.6-6.9-15.3-6C323.8,215.9,326.8,210.1,326.8,210.1z"/>
	<path fill="#FFFFFF" d="M270.8,158.9c0,0-1.3,6.3,2.5,7.7c3.9-1,1.8-8.7,1.8-8.7L270.8,158.9z"/>
	<path fill="#FFFFFF" d="M150.1,216.6c0,0,14.8-4.8,27.5-4.7l1.4,12.3l-31.3,2.9L150.1,216.6z"/>
</g>
</svg>
