<?xml version="1.0" encoding="utf-8"?>
<!-- Generator: Adobe Illustrator 19.1.0, SVG Export Plug-In . SVG Version: 6.00 Build 0)  -->
<!DOCTYPE svg PUBLIC "-//W3C//DTD SVG 1.1//EN" "http://www.w3.org/Graphics/SVG/1.1/DTD/svg11.dtd">
<svg version="1.1" id="Layer_1" xmlns="http://www.w3.org/2000/svg" xmlns:xlink="http://www.w3.org/1999/xlink" x="0px" y="0px"
	 viewBox="0 0 401.5 402" enable-background="new 0 0 401.5 402" xml:space="preserve">
<path fill="#A93959" d="M362.8,402H38.7C17.3,402,0,384.6,0,363.3V38.7C0,17.3,17.3,0,38.7,0h324.1c21.4,0,38.7,17.3,38.7,38.7
	v324.6C401.5,384.6,384.1,402,362.8,402z"/>
<path fill="#FFFFFF" d="M197,149.7c0,0-69.4,5.2-134-67.2c0,0-29.4,44.6,18.9,87.3c0,0-8.1,1.6-26.7-7.1c0,0-8.7,44.9,49.7,64.5
	c0,0-5.4,5.3-27.5,1.8c0,0,12,41.6,58,44.6c0,0-26.7,31-92.5,28.5c0,0,87.7,64.3,191.9,4.7s94.7-166.1,94.7-166.1s0.1-10.7,8.3-12.5
	c8.2-1.8,22.8-26.5,22.8-26.5s-21.9,9-35.4,9.4c0,0,26.2-19.4,27-35.5c0,0-25.5,15-43.2,13.1c0,0-35.3-35.4-81.1-9.8
	C188.7,100.7,197,149.7,197,149.7z"/>
</svg>
