<svg xmlns="http://www.w3.org/2000/svg" viewBox="0 0 401.5 402" enable-background="new 0 0 401.5 402"><path fill="#A93959" d="M400.8 201.4c0-54.9-.2-109.8.2-164.8.1-16.7-12.7-34.7-34.4-34.7h-330.2c-19.9 0-34.4 14.8-34.4 34.6v329.9c0 2.6.2 5.2.7 7.7 3.6 16.5 16.9 26.8 34.4 26.8h237.2c30.5 0 61.1-.1 91.7 0 21.9.1 35.1-17.9 34.9-34.8-.4-54.9-.1-109.8-.1-164.7zm-148.7-88.5h85v20h-85v-20zm-45.8 148.8c-5.1 21.9-19.8 34.5-40.9 40.3-5.8 1.6-11.9 2.6-17.9 2.6-37.6.2-75.2.3-112.9.3h-4.6v-206.8h17.7c24.4-.1 48.8-.3 73.1-.4 11.5 0 23.2-.5 34.7.4 23.3 1.8 40.3 19.6 42.3 42.8 1.2 13.5-.8 26.2-9 37.3-4.7 6.3-10.8 10.9-18.6 14.6 17.6 1.2 27.2 11.4 32.7 26.2 5.2 13.9 6.8 28.2 3.4 42.7zm95.8 15.9c9.6-1.2 18.6-4 23.8-12.6 2.7-4.5 5.7-5.4 10.4-5.2 9.4.3 18.9.2 28.3.2h3.9c.3 9-1.8 17.6-6.6 25.1-5.7 8.9-13.9 14.9-23.7 18.6-25.5 9.8-51.4 10.3-77 .9-21.4-7.9-34.7-24-40.9-45.6-6.5-22.7-5.6-45.4 3.5-67.3 9.7-23.5 27.9-36.8 52.7-41.1 13.4-2.3 26.8-2.4 40.1.8 20 4.8 34.3 16.4 42.9 35 7.8 16.9 9.8 34.5 8.8 53.5h-108.6c-.6 23 19.2 40.5 42.4 37.7z"/><path fill="#fff" d="M203 219c-5.5-14.8-15.1-25-32.7-26.2 7.8-3.7 13.9-8.3 18.6-14.6 8.3-11.2 10.2-23.8 9-37.3-2-23.2-19-41-42.3-42.8-11.5-.9-23.1-.5-34.7-.4l-73.2.4h-17.7v206.9h4.6c37.6 0 75.2-.1 112.9-.3 6 0 12.1-.9 17.9-2.5 21-5.8 35.7-18.4 40.9-40.3 3.4-14.7 1.8-29-3.3-42.9zm-125.9-86.1h3.7c15.2 0 30.3.4 45.5.2 16.8-.2 27.3 10.7 25.4 29.5-1.6 15.8-13.2 22.2-24.5 21.5-5.4-.3-10.8 0-16.2 0l-31.9-.4c-.5 0-1.1-.1-2.1-.1v-50.7zm84 112.8c-2.2 15.6-11.5 23.5-27.2 23.3l-54.5-.5c-.7 0-1.3-.1-2.3-.2v-54.5c1 0 2.2-.1 3.4-.1h53.2c18.8.1 30.1 13.2 27.4 32zm203.4 14.2c-9.4 0-18.9.2-28.3-.1-4.7-.2-7.6.7-10.4 5.3-5.2 8.6-14.2 11.4-23.8 12.6-23.1 2.8-43-14.7-42.4-37.7h108.7c1.1-19-.9-36.6-8.8-53.5-8.6-18.6-23-30.3-42.9-35.1-13.3-3.2-26.7-3.1-40.1-.8-24.8 4.3-43 17.6-52.7 41.1-9.1 21.9-9.9 44.6-3.5 67.3 6.2 21.7 19.5 37.7 40.9 45.6 25.6 9.5 51.5 8.9 77-.9 9.8-3.7 17.9-9.7 23.7-18.6 4.9-7.5 6.9-16.1 6.6-25.1h-4zm-68.4-78.4c19 .3 30.2 17.4 32.6 30.4h-67.5c2.5-18 17.3-30.7 34.9-30.4zm41.4-68.8v20.2h-85.4v-20.2h85.4z"/><path fill="#A93959" d="M77 268.4v-54.5c1 0 2.2-.2 3.4-.2h53.2c18.9 0 30.1 13.2 27.5 32-2.2 15.6-11.5 23.5-27.2 23.3-18.2-.2-36.4-.3-54.5-.5-.7.1-1.3 0-2.4-.1zm-.1-84.9v-50.2h3.9c15.2 0 30.3.2 45.5 0 16.8-.2 27.3 10.6 25.4 29.4-1.6 15.8-13.2 22.1-24.4 21.4-5.4-.3-10.8 0-16.2-.1l-32-.4c-.6 0-1.1 0-2.2-.1zm184.3 28.4c2.4-17.8 17.2-30.7 34.9-30.4 19 .3 30.2 17 32.6 30.4h-67.5z"/></svg>