<svg xmlns="http://www.w3.org/2000/svg" viewBox="0 0 401.5 402" enable-background="new 0 0 401.5 402"><path fill="#fff" d="M-7.8 412v-421.3h421.3v421.3h-421.3zm408.6-210.6c0-54.9-.3-109.9.2-164.8.1-16.7-12.7-34.7-34.4-34.7h-330.2c-19.9 0-34.4 14.8-34.4 34.6v329.9c0 2.6.2 5.2.7 7.7 3.6 16.5 16.9 26.8 34.4 26.8h237.2c30.6 0 61.1-.1 91.7 0 22 .1 35.1-17.9 34.9-34.8-.4-54.9-.1-109.8-.1-164.7z"/><path fill="#A93959" d="M400.8 201.4c0 54.9-.3 109.9.2 164.8.1 17-13 35-34.9 34.8-30.6-.2-61.1 0-91.7 0h-237.2c-17.4 0-30.8-10.4-34.4-26.8-.6-2.6-.8-5.2-.8-7.8v-329.9c0-19.8 14.5-34.6 34.4-34.6 110.1-.1 220.1 0 330.2 0 21.7 0 34.5 18 34.4 34.7-.5 54.9-.2 109.8-.2 164.8zm-370.5 103.1h4.4c37.6 0 75.2.1 112.9-.1 6 0 12.1-.8 17.9-2.4 21-5.8 35.7-18.4 40.9-40.3 3.4-14.5 1.8-28.8-3.4-42.7-5.5-14.8-15.1-25.1-32.7-26.2 7.8-3.7 13.9-8.3 18.6-14.6 8.3-11.2 10.2-23.8 9-37.4-2-23.2-19-41-42.3-42.8-11.5-.9-23.1-.4-34.6-.4l-73.1.4h-17.6v206.5zm229.4-64.4h108.6c1.1-18.8-.9-36.7-8.7-53.6-8.6-18.6-23-30.4-42.9-35.1-13.3-3.2-26.7-3.1-40.1-.8-24.8 4.3-43 17.6-52.7 41.1-9.1 21.9-9.9 44.6-3.5 67.3 6.2 21.6 19.5 37.7 40.9 45.6 25.6 9.5 51.5 8.9 77-.9 9.7-3.7 17.9-9.7 23.7-18.7 4.9-7.5 6.9-15.9 6.6-25.2h-3.9c-9.4 0-18.9.2-28.3-.1-4.7-.2-7.6.7-10.4 5.3-5.2 8.6-14.1 11.5-23.8 12.7-23.3 2.7-43.1-14.5-42.5-37.6zm77.8-127.4h-85.4v20.2h85.4v-20.2z"/><path fill="#fff" d="M30.3 304.5v-206.5h17.6l73.1-.4c11.6 0 23.2-.5 34.6.4 23.3 1.8 40.3 19.6 42.3 42.8 1.2 13.5-.8 26.2-9 37.4-4.7 6.3-10.8 10.9-18.6 14.6 17.6 1.2 27.2 11.4 32.7 26.2 5.2 13.9 6.8 28.2 3.4 42.7-5.1 21.9-19.8 34.5-40.9 40.3-5.8 1.6-11.9 2.4-17.9 2.4-37.6.2-75.2.1-112.9.1h-4.4zm46.7-36.1c1.1.1 1.7.2 2.4.2 18.2.2 36.4.3 54.5.5 15.7.2 25-7.8 27.2-23.3 2.6-18.8-8.6-31.9-27.5-32h-53.2c-1.2 0-2.4.1-3.4.2v54.4zm-.1-84.9c1.1.1 1.6.1 2.2.1 10.7.2 21.3.3 32 .4 5.4.1 10.8-.3 16.2.1 11.3.7 22.8-5.7 24.4-21.4 1.9-18.8-8.6-29.7-25.4-29.4-15.2.2-30.3 0-45.5 0h-3.9v50.2zm182.8 56.6c-.5 23.1 19.3 40.4 42.4 37.6 9.6-1.2 18.6-4.1 23.8-12.7 2.7-4.5 5.7-5.5 10.4-5.3 9.4.3 18.9.1 28.3.1h3.9c.3 9.3-1.8 17.6-6.6 25.2-5.7 8.9-13.9 14.9-23.7 18.7-25.5 9.8-51.4 10.3-77 .9-21.4-7.9-34.7-24-40.9-45.6-6.5-22.7-5.6-45.4 3.5-67.3 9.7-23.5 27.9-36.8 52.7-41.1 13.4-2.3 26.8-2.4 40.1.8 19.9 4.7 34.3 16.5 42.9 35.1 7.8 16.9 9.8 34.8 8.7 53.6h-108.5zm1.5-28.2h67.4c-2.4-13.4-13.6-30.1-32.6-30.4-17.5-.2-32.3 12.6-34.8 30.4zm76.3-99.2v20.2h-85.4v-20.2h85.4z"/><path fill="#A93959" d="M77 268.4v-54.5c1 0 2.2-.2 3.4-.2h53.2c18.9 0 30.1 13.2 27.5 32-2.2 15.6-11.5 23.5-27.2 23.3-18.2-.2-36.4-.3-54.5-.5-.7.1-1.3 0-2.4-.1zm-.1-84.9v-50.2h3.9c15.2 0 30.3.2 45.5 0 16.8-.2 27.3 10.6 25.4 29.4-1.6 15.8-13.2 22.1-24.4 21.4-5.4-.3-10.8 0-16.2-.1l-32-.4c-.6 0-1.1 0-2.2-.1zm184.3 28.4c2.4-17.8 17.2-30.7 34.9-30.4 19 .3 30.2 17 32.6 30.4h-67.5z"/></svg>