<?xml version="1.0" encoding="utf-8"?>
<!-- Generator: Adobe Illustrator 19.1.0, SVG Export Plug-In . SVG Version: 6.00 Build 0)  -->
<!DOCTYPE svg PUBLIC "-//W3C//DTD SVG 1.1//EN" "http://www.w3.org/Graphics/SVG/1.1/DTD/svg11.dtd">
<svg version="1.1" id="Layer_1" xmlns="http://www.w3.org/2000/svg" xmlns:xlink="http://www.w3.org/1999/xlink" x="0px" y="0px"
	 viewBox="0 0 401.5 402" enable-background="new 0 0 401.5 402" xml:space="preserve">
<g id="wZGpwv_1_">
	<g>
		<path fill="#A93959" d="M400.8,201.4c0-54.9-0.2-109.8,0.2-164.8c0.1-16.7-12.7-34.7-34.4-34.7c-110.1,0-220.1,0-330.2,0
			C16.5,1.9,2,16.7,2,36.5c0,110,0,219.9,0,329.9c0,2.6,0.2,5.2,0.7,7.7c3.6,16.5,16.9,26.8,34.4,26.8c79.1,0,158.1,0,237.2,0
			c30.5,0,61.1-0.1,91.7,0c21.9,0.1,35.1-17.9,34.9-34.8C400.5,311.2,400.8,256.3,400.8,201.4z M252.1,112.9h85v20h-85V112.9z
			 M206.3,261.7c-5.1,21.9-19.8,34.5-40.9,40.3c-5.8,1.6-11.9,2.6-17.9,2.6c-37.6,0.2-75.2,0.3-112.9,0.3h-4.6V98.1
			c6,0,11.9,0,17.7,0c24.4-0.1,48.8-0.3,73.1-0.4c11.5,0,23.2-0.5,34.7,0.4c23.3,1.8,40.3,19.6,42.3,42.8c1.2,13.5-0.8,26.2-9,37.3
			c-4.7,6.3-10.8,10.9-18.6,14.6c17.6,1.2,27.2,11.4,32.7,26.2C208.1,232.9,209.7,247.2,206.3,261.7z M302.1,277.6
			c9.6-1.2,18.6-4,23.8-12.6c2.7-4.5,5.7-5.4,10.4-5.2c9.4,0.3,18.9,0.2,28.3,0.2h3.9c0.3,9-1.8,17.6-6.6,25.1
			c-5.7,8.9-13.9,14.9-23.7,18.6c-25.5,9.8-51.4,10.3-77,0.9c-21.4-7.9-34.7-24-40.9-45.6c-6.5-22.7-5.6-45.4,3.5-67.3
			c9.7-23.5,27.9-36.8,52.7-41.1c13.4-2.3,26.8-2.4,40.1,0.8c20,4.8,34.3,16.4,42.9,35c7.8,16.9,9.8,34.5,8.8,53.5H259.7
			C259.1,262.9,278.9,280.4,302.1,277.6z"/>
		<path fill="#FFFFFF" d="M203,219c-5.5-14.8-15.1-25-32.7-26.2c7.8-3.7,13.9-8.3,18.6-14.6c8.3-11.2,10.2-23.8,9-37.3
			c-2-23.2-19-41-42.3-42.8c-11.5-0.9-23.1-0.5-34.7-0.4c-24.4,0.1-48.8,0.3-73.2,0.4c-5.8,0-11.7,0-17.7,0v206.9h4.6
			c37.6,0,75.2-0.1,112.9-0.3c6,0,12.1-0.9,17.9-2.5c21-5.8,35.7-18.4,40.9-40.3C209.7,247.2,208.1,232.9,203,219z M77.1,132.9h3.7
			c15.2,0,30.3,0.4,45.5,0.2c16.8-0.2,27.3,10.7,25.4,29.5c-1.6,15.8-13.2,22.2-24.5,21.5c-5.4-0.3-10.8,0-16.2,0
			c-10.7-0.1-21.2-0.3-31.9-0.4c-0.5,0-1.1-0.1-2.1-0.1V132.9z M161.1,245.7c-2.2,15.6-11.5,23.5-27.2,23.3
			c-18.2-0.2-36.3-0.3-54.5-0.5c-0.7,0-1.3-0.1-2.3-0.2v-54.5c1,0,2.2-0.1,3.4-0.1c17.7,0,35.4,0,53.2,0
			C152.5,213.8,163.8,226.9,161.1,245.7z"/>
		<path fill="#FFFFFF" d="M364.5,259.9c-9.4,0-18.9,0.2-28.3-0.1c-4.7-0.2-7.6,0.7-10.4,5.3c-5.2,8.6-14.2,11.4-23.8,12.6
			c-23.1,2.8-43-14.7-42.4-37.7h108.7c1.1-19-0.9-36.6-8.8-53.5c-8.6-18.6-23-30.3-42.9-35.1c-13.3-3.2-26.7-3.1-40.1-0.8
			c-24.8,4.3-43,17.6-52.7,41.1c-9.1,21.9-9.9,44.6-3.5,67.3c6.2,21.7,19.5,37.7,40.9,45.6c25.6,9.5,51.5,8.9,77-0.9
			c9.8-3.7,17.9-9.7,23.7-18.6c4.9-7.5,6.9-16.1,6.6-25.1H364.5z M296.1,181.5c19,0.3,30.2,17.4,32.6,30.4h-67.5
			C263.7,193.9,278.5,181.2,296.1,181.5z"/>
		<path fill="#FFFFFF" d="M337.5,112.7c0,6.9,0,13.4,0,20.2c-28.5,0-56.8,0-85.4,0c0-6.6,0-13.3,0-20.2
			C280.5,112.7,308.9,112.7,337.5,112.7z"/>
		<path fill="#A93959" d="M77,268.4c0-18.1,0-36.1,0-54.5c1,0,2.2-0.2,3.4-0.2c17.7,0,35.5,0,53.2,0c18.9,0,30.1,13.2,27.5,32
			c-2.2,15.6-11.5,23.5-27.2,23.3c-18.2-0.2-36.4-0.3-54.5-0.5C78.7,268.6,78.1,268.5,77,268.4z"/>
		<path fill="#A93959" d="M76.9,183.5c0-16.8,0-33.2,0-50.2c1.3,0,2.6,0,3.9,0c15.2,0,30.3,0.2,45.5,0c16.8-0.2,27.3,10.6,25.4,29.4
			c-1.6,15.8-13.2,22.1-24.4,21.4c-5.4-0.3-10.8,0-16.2-0.1c-10.7-0.1-21.3-0.3-32-0.4C78.5,183.6,78,183.6,76.9,183.5z"/>
		<path fill="#A93959" d="M261.2,211.9c2.4-17.8,17.2-30.7,34.9-30.4c19,0.3,30.2,17,32.6,30.4C306.3,211.9,283.9,211.9,261.2,211.9
			z"/>
	</g>
</g>
</svg>
