<?xml version="1.0" encoding="utf-8"?>
<!-- Generator: Adobe Illustrator 19.1.0, SVG Export Plug-In . SVG Version: 6.00 Build 0)  -->
<!DOCTYPE svg PUBLIC "-//W3C//DTD SVG 1.1//EN" "http://www.w3.org/Graphics/SVG/1.1/DTD/svg11.dtd">
<svg version="1.1" id="Layer_1" xmlns="http://www.w3.org/2000/svg" xmlns:xlink="http://www.w3.org/1999/xlink" x="0px" y="0px"
	 viewBox="0 0 401.5 402" enable-background="new 0 0 401.5 402" xml:space="preserve">
<g id="obj0iK.tif">
	<g>
		<path fill="#A93959" d="M393.2,47c-12.1-25.5-32.5-40.4-60.4-45.1c-0.9-0.2-1.8-0.6-2.7-1h-258c-2.6,0.8-5.3,1.6-8,2.3
			c-6.3,1.7-12.6,3.4-18.3,6.3c-0.2,0.1-0.4,0.2-0.7,0.3C17.9,23.8,2.8,46.7,1.4,77.4c-1.1,25.1-0.3,50.3-0.3,75.5
			c0,55.5-0.1,111,0,166.4c0,35.9,20.7,65.8,54.2,77c9,3,18.9,4.3,28.4,4.4c78.1,0.3,156.3-0.2,234.4,0.3
			c43.9,0.3,77.5-31.4,82.2-69.4c0.1-0.6,0.5-1.2,0.8-1.7v-258C398.5,63.6,396.9,54.8,393.2,47z M203.4,123.9
			c41.1,1.1,75.2,36.8,74.2,77.7c-1.1,44.2-36,77.5-80,76.3c-41.1-1.1-75.1-36.7-74.3-77.7C124.3,156.3,159.5,122.8,203.4,123.9z
			 M326.6,354.7c-84,0-168,0-252,0c-4.9,0-9.3-0.8-13-2.3c-9.4-3.9-14.7-12.7-14.7-25.2c0-50.3,0.1-100.7,0.1-151v-5.3h34v0
			c-9,45,0.7,84.6,33.2,117.2c1.5,1.5,3,2.9,4.5,4.3c6.8,6.2,14,11.5,21.6,15.9c1.7,1,3.4,1.9,5.1,2.8c1.7,0.9,3.5,1.7,5.2,2.5
			c5.3,2.4,10.7,4.3,16.4,5.9c1.9,0.5,3.8,1,5.7,1.4c2.9,0.6,5.8,1.2,8.7,1.6c2,0.3,3.9,0.5,5.9,0.7c5.5,0.5,11.1,0.7,16.8,0.5
			c5.5-0.2,10.8-0.7,16-1.4c1.2-0.2,2.3-0.4,3.4-0.6c2.3-0.4,4.5-0.9,6.7-1.4c1.1-0.3,2.2-0.5,3.3-0.8c1.1-0.3,2.2-0.6,3.3-0.9
			c24.3-7.2,44.9-21.9,61.5-43.7c13.3-17.5,21-36.2,23.8-56c0.1-0.8,0.2-1.6,0.3-2.4c1.1-9.1,1.1-18.4,0.2-27.9
			c-0.6-5.8-1.5-11.6-2.7-17.5c0,0,0,0,0-0.1h34.2v5.6c0,50.2,0,100.3,0,150.5c0,13.6-6.2,22.9-17.2,26.3
			C333.9,354.2,330.4,354.7,326.6,354.7z M354.1,100.6c-0.3,13.3-11,24-24.3,24.3c-9.3,0.2-18.7,0.2-28,0
			c-13.6-0.2-24.4-11-24.7-24.5c-0.2-9.3-0.2-18.7,0-28c0.3-13.6,11-24.3,24.6-24.5c9.3-0.1,18.7-0.2,28,0
			c13.4,0.3,24,10.9,24.4,24.2c0.1,4.8,0,9.7,0,14.5C354.2,91.2,354.3,95.9,354.1,100.6z"/>
		<path fill="#FFFFFF" d="M72.1,0.9c-2.6,0.8-5.3,1.6-8,2.3c-6.3,1.7-12.6,3.4-18.3,6.3c-0.2,0.1-0.4,0.2-0.7,0.3V0.9H72.1z"/>
		<path fill="#FFFFFF" d="M46.9,170.9c11.8,0,22.8,0,34.2,0c-9.2,45,0.7,84.6,33.2,117.2c24.6,24.7,55,36.6,89.9,35.5
			c38.9-1.3,70.6-17.8,94.3-48.8C322,243.9,328,208.9,319.9,171c11.5,0,22.6,0,34.3,0c0,1.9,0,3.7,0,5.5c0,50.2,0,100.3,0,150.5
			c0,17.4-10.2,27.7-27.5,27.7c-84,0-168,0-252,0c-17.5,0-27.7-10.2-27.7-27.5c0-50.3,0-100.7,0-151
			C46.9,174.6,46.9,172.9,46.9,170.9z"/>
		<path fill="#FFFFFF" d="M277.6,201.6c-1.1,44.2-36,77.5-80,76.3c-41.1-1.1-75.1-36.7-74.3-77.7c0.9-43.9,36.1-77.5,80.1-76.3
			C244.5,125,278.7,160.7,277.6,201.6z"/>
		<path fill="#FFFFFF" d="M354.2,86.6c0,4.7,0.1,9.3,0,14c-0.4,13.3-11,24-24.3,24.3c-9.3,0.2-18.7,0.2-28,0
			c-13.6-0.2-24.4-11-24.7-24.5c-0.2-9.3-0.2-18.7,0-28c0.3-13.6,11-24.3,24.6-24.5c9.3-0.2,18.7-0.2,28,0
			c13.4,0.3,24,10.9,24.4,24.2C354.3,76.9,354.2,81.7,354.2,86.6z"/>
	</g>
	<rect x="45.1" y="0.9" fill="#FFFFFF" width="19" height="93"/>
	<rect x="75.1" y="0.9" fill="#FFFFFF" width="19" height="93"/>
	<rect x="106.1" y="0.9" fill="#FFFFFF" width="19" height="93"/>
	<circle fill="#A93959" cx="200.1" cy="200.5" r="35.6"/>
</g>
</svg>
