<svg xmlns="http://www.w3.org/2000/svg" viewBox="0 0 401.5 402" enable-background="new 0 0 401.5 402"><path fill="#A93959" d="M401.1 71.9v258c-.3.6-.8 1.1-.8 1.7-4.7 38-38.3 69.7-82.2 69.4-78.1-.5-156.3 0-234.4-.3-9.5 0-19.4-1.4-28.4-4.4-33.5-11.2-54.1-41.1-54.2-77-.1-55.5 0-110.9 0-166.4 0-25.2-.8-50.3.3-75.5 1.4-30.9 16.7-54 44.3-68 8.1-4.1 17.5-5.8 26.3-8.5h258c.9.3 1.8.8 2.7.9 27.9 4.7 48.3 19.6 60.4 45.1 3.8 7.9 5.4 16.7 8 25zm-354.2 99v156.3c0 17.4 10.2 27.5 27.7 27.5h252c17.3 0 27.5-10.3 27.5-27.7v-156h-34.3c8 38 2.1 72.9-21.5 103.8-23.6 31-55.3 47.5-94.3 48.8-34.8 1.2-65.3-10.8-89.9-35.5-32.5-32.6-42.5-72.3-33.2-117.2h-34zm230.7 30.7c1-40.9-33.1-76.6-74.2-77.7-44-1.1-79.2 32.4-80.1 76.3-.8 41 33.2 76.6 74.3 77.7 44.1 1.1 78.9-32.1 80-76.3zm76.6-115c0-4.8.1-9.7 0-14.5-.4-13.3-11-23.9-24.4-24.2-9.3-.2-18.7-.2-28 0-13.6.2-24.4 10.9-24.6 24.5-.2 9.3-.2 18.7 0 28 .3 13.5 11.1 24.3 24.7 24.5 9.3.2 18.7.2 28 0 13.3-.3 24-11 24.3-24.3.1-4.7 0-9.4 0-14z"/><path fill="#fff" d="M72.1.9c-8.8 2.8-18.2 4.4-26.3 8.5-27.6 14-43 37-44.3 68-1.1 25.1-.3 50.3-.3 75.5 0 55.5-.1 110.9 0 166.4 0 35.9 20.7 65.8 54.2 77 9 3 18.9 4.3 28.4 4.4 78.1.3 156.3-.2 234.4.3 43.9.3 77.5-31.4 82.2-69.4.1-.6.5-1.2.8-1.7v72h-401v-401h71.9zm329 71c-2.6-8.3-4.2-17.1-7.9-24.9-12.1-25.5-32.5-40.4-60.4-45.1-.9-.2-1.8-.6-2.7-.9h71v70.9zm-354.2 99h34.2c-9.2 45 .7 84.6 33.2 117.2 24.6 24.7 55 36.6 89.9 35.5 38.9-1.3 70.6-17.8 94.3-48.8 23.5-30.9 29.5-65.9 21.4-103.8h34.3v156c0 17.4-10.2 27.7-27.5 27.7h-252c-17.5 0-27.7-10.2-27.7-27.5v-151c-.1-1.6-.1-3.3-.1-5.3zm230.7 30.7c-1.1 44.2-36 77.5-80 76.3-41.1-1.1-75.1-36.7-74.3-77.7.9-43.9 36.1-77.5 80.1-76.3 41.1 1.1 75.3 36.8 74.2 77.7zm76.6-115c0 4.7.1 9.3 0 14-.4 13.3-11 24-24.3 24.3-9.3.2-18.7.2-28 0-13.6-.2-24.4-11-24.7-24.5-.2-9.3-.2-18.7 0-28 .3-13.6 11-24.3 24.6-24.5 9.3-.2 18.7-.2 28 0 13.4.3 24 10.9 24.4 24.2.1 4.8 0 9.6 0 14.5zm-309.1-85.7h19v93h-19zm30 0h19v93h-19zm31 0h19v93h-19z"/><circle fill="#A93959" cx="200.1" cy="200.5" r="35.6"/></svg>