<svg xmlns="http://www.w3.org/2000/svg" viewBox="0 0 401.5 402" enable-background="new 0 0 401.5 402"><path fill="#A93959" d="M393.2 47c-12.1-25.5-32.5-40.4-60.4-45.1-.9-.2-1.8-.6-2.7-1h-258c-2.6.8-5.3 1.6-8 2.3-6.3 1.7-12.6 3.4-18.3 6.3-.2.1-.4.2-.7.3-27.2 14-42.3 36.9-43.7 67.6-1.1 25.1-.3 50.3-.3 75.5 0 55.5-.1 111 0 166.4 0 35.9 20.7 65.8 54.2 77 9 3 18.9 4.3 28.4 4.4 78.1.3 156.3-.2 234.4.3 43.9.3 77.5-31.4 82.2-69.4.1-.6.5-1.2.8-1.7v-258c-2.6-8.3-4.2-17.1-7.9-24.9zm-189.8 76.9c41.1 1.1 75.2 36.8 74.2 77.7-1.1 44.2-36 77.5-80 76.3-41.1-1.1-75.1-36.7-74.3-77.7 1-43.9 36.2-77.4 80.1-76.3zm123.2 230.8h-252c-4.9 0-9.3-.8-13-2.3-9.4-3.9-14.7-12.7-14.7-25.2l.1-151v-5.3h34c-9 45 .7 84.6 33.2 117.2 1.5 1.5 3 2.9 4.5 4.3 6.8 6.2 14 11.5 21.6 15.9 1.7 1 3.4 1.9 5.1 2.8 1.7.9 3.5 1.7 5.2 2.5 5.3 2.4 10.7 4.3 16.4 5.9 1.9.5 3.8 1 5.7 1.4 2.9.6 5.8 1.2 8.7 1.6 2 .3 3.9.5 5.9.7 5.5.5 11.1.7 16.8.5 5.5-.2 10.8-.7 16-1.4 1.2-.2 2.3-.4 3.4-.6 2.3-.4 4.5-.9 6.7-1.4l3.3-.8 3.3-.9c24.3-7.2 44.9-21.9 61.5-43.7 13.3-17.5 21-36.2 23.8-56l.3-2.4c1.1-9.1 1.1-18.4.2-27.9-.6-5.8-1.5-11.6-2.7-17.5v-.1h34.2v156.1c0 13.6-6.2 22.9-17.2 26.3-3 .8-6.5 1.3-10.3 1.3zm27.5-254.1c-.3 13.3-11 24-24.3 24.3-9.3.2-18.7.2-28 0-13.6-.2-24.4-11-24.7-24.5-.2-9.3-.2-18.7 0-28 .3-13.6 11-24.3 24.6-24.5 9.3-.1 18.7-.2 28 0 13.4.3 24 10.9 24.4 24.2.1 4.8 0 9.7 0 14.5.1 4.6.2 9.3 0 14z"/><path fill="#fff" d="M72.1.9c-2.6.8-5.3 1.6-8 2.3-6.3 1.7-12.6 3.4-18.3 6.3-.2.1-.4.2-.7.3v-8.9h27zm-25.2 170h34.2c-9.2 45 .7 84.6 33.2 117.2 24.6 24.7 55 36.6 89.9 35.5 38.9-1.3 70.6-17.8 94.3-48.8 23.5-30.9 29.5-65.9 21.4-103.8h34.3v156c0 17.4-10.2 27.7-27.5 27.7h-252c-17.5 0-27.7-10.2-27.7-27.5v-151c-.1-1.6-.1-3.3-.1-5.3zm230.7 30.7c-1.1 44.2-36 77.5-80 76.3-41.1-1.1-75.1-36.7-74.3-77.7.9-43.9 36.1-77.5 80.1-76.3 41.1 1.1 75.3 36.8 74.2 77.7zm76.6-115c0 4.7.1 9.3 0 14-.4 13.3-11 24-24.3 24.3-9.3.2-18.7.2-28 0-13.6-.2-24.4-11-24.7-24.5-.2-9.3-.2-18.7 0-28 .3-13.6 11-24.3 24.6-24.5 9.3-.2 18.7-.2 28 0 13.4.3 24 10.9 24.4 24.2.1 4.8 0 9.6 0 14.5zm-309.1-85.7h19v93h-19zm30 0h19v93h-19zm31 0h19v93h-19z"/><circle fill="#A93959" cx="200.1" cy="200.5" r="35.6"/></svg>