<?xml version="1.0" encoding="utf-8"?>
<!-- Generator: Adobe Illustrator 19.1.0, SVG Export Plug-In . SVG Version: 6.00 Build 0)  -->
<!DOCTYPE svg PUBLIC "-//W3C//DTD SVG 1.1//EN" "http://www.w3.org/Graphics/SVG/1.1/DTD/svg11.dtd">
<svg version="1.1" xmlns="http://www.w3.org/2000/svg" xmlns:xlink="http://www.w3.org/1999/xlink" x="0px" y="0px"
	 viewBox="0 0 473.1 307.8" enable-background="new 0 0 473.1 307.8" xml:space="preserve">
<g id="lastname">
</g>
<g id="first_name">
</g>
<g id="intersect">
	<g>
		<rect x="176.6" y="100.9" width="38.2" height="23.7"/>
		<rect x="223.9" y="100.9" width="23.7" height="23.7"/>
		<polygon points="134.3,66.7 134.3,175 0,175 0,0 23.7,0 23.7,151.4 110.6,151.4 110.6,124.6 63.9,124.6 63.9,66.7 87.5,66.7 
			87.5,100.9 110.6,100.9 110.6,66.7 		"/>
		<rect x="0" y="189.2" width="110.6" height="23.7"/>
		<path d="M405.4,0v100.9H294.7V89.6h82.9V31H271v35h-23.5V31h-23.6v35h-23.7V31.5h-23.7V66h-30.3v217.9H0v23.7h169.9V89.6H271v35
			h158V23.7h20.4v283.8h23.7V0H405.4z M294.7,54.6h59.3V66h-59.3V54.6z"/>
		<g>
			<path fill="#E41A50" d="M306.1,142.5v160.4c0,2.7-2.2,4.9-4.9,4.9H299c-2.7,0-4.9-2.2-4.9-4.9v-118l-17.7,61.9
				c-0.9,3.7-4.1,6.2-7.9,6.3c-3.8,0.1-7.1-2.3-8.2-5.9L249,210h-11.2c-2.7,0-4.9-2.2-4.9-4.9v-2.3c0-2.7,2.2-4.8,4.9-4.8h7.5
				l-12.7-41.6l-31.6,90.9c-1,3.1-3.7,5.2-6.9,5.6c-3.2,0.4-6.3-1.1-8-3.8L158,207.9c-1.6-2.5-1.8-5.7-0.4-8.3s4.2-4.3,7.2-4.5
				c12.3-0.8,32.6-5.7,33.5-28.8c-0.2-21-23.3-23.3-25.7-23.5H76.3v105.2c0,2.7-2.2,4.8-4.8,4.8h-2.4c-2.7,0-4.8-2.2-4.8-4.8V135.6
				c0-2.7,2.2-4.9,4.9-4.9l104,0c12.8,0.8,37,9.2,37.1,35.6v0.2c-0.5,14.7-7.1,26.1-19.1,33.1c-6.8,4-14.2,5.9-20,6.7l20.9,29.8
				l32.9-94.7c1.1-3.4,4.3-5.6,7.8-5.6h0.1c3.6,0.1,6.7,2.4,7.8,5.8l27.3,89.4l24.9-90.5c0.9-3.5,4.4-5.7,8.1-4.8
				C304,136.4,306.1,139.3,306.1,142.5z"/>
		</g>
		<g>
			<path fill="#E41A50" d="M465.4,252l-2.2,0.7c-2.6,0.8-5.3-0.7-6-3.2L445,210h-10.6c-2.7,0-4.9-2.2-4.9-4.9v-2.3
				c0-2.7,2.2-4.9,4.9-4.9h6.9l-12.8-41.6l-31.2,90.9c-1.2,3.5-4.5,5.7-8.1,5.7c-3.7-0.1-6.8-2.4-7.9-5.9L369.8,210h-10.5
				c-2.7,0-4.9-2.2-4.9-4.9v-2.3c0-2.7,2.2-4.9,4.9-4.9h6.8l-12.8-41.6l-31.6,94c-0.8,2.5-3.6,3.9-6.1,3l-2.2-0.8
				c-2.5-0.8-3.9-3.6-3-6.1l35-104.1c1.2-3.5,4.5-5.9,8.2-5.8c3.7,0,7,2.5,8.1,6l27.8,90.2l30.9-90.1c1.2-3.5,4.5-5.9,8.2-5.9
				c0,0,0.1,0,0.1,0c3.8,0,7,2.5,8.1,6.1L468.6,246C469.4,248.5,468,251.2,465.4,252z"/>
		</g>
		<rect x="146.3" y="128.5" width="23.6" height="33.1"/>
		<rect x="11.9" y="151.4" width="110.6" height="23.7"/>
	</g>
</g>
</svg>
