<svg xmlns="http://www.w3.org/2000/svg" viewBox="0 0 401.5 402" enable-background="new 0 0 401.5 402"><path fill="#A93959" d="M362.8 402h-324.1c-21.4 0-38.7-17.4-38.7-38.7v-324.6c0-21.4 17.3-38.7 38.7-38.7h324.1c21.4 0 38.7 17.3 38.7 38.7v324.6c0 21.3-17.4 38.7-38.7 38.7z"/><path fill="#fff" d="M197 149.7s-69.4 5.2-134-67.2c0 0-29.4 44.6 18.9 87.3 0 0-8.1 1.6-26.7-7.1 0 0-8.7 44.9 49.7 64.5 0 0-5.4 5.3-27.5 1.8 0 0 12 41.6 58 44.6 0 0-26.7 31-92.5 28.5 0 0 87.7 64.3 191.9 4.7l94.7-166.1s.1-10.7 8.3-12.5c8.2-1.8 22.8-26.5 22.8-26.5s-21.9 9-35.4 9.4c0 0 26.2-19.4 27-35.5 0 0-25.5 15-43.2 13.1 0 0-35.3-35.4-81.1-9.8-39.2 21.8-30.9 70.8-30.9 70.8z"/></svg>