<?xml version="1.0" encoding="utf-8"?>
<!-- Generator: Adobe Illustrator 19.1.0, SVG Export Plug-In . SVG Version: 6.00 Build 0)  -->
<!DOCTYPE svg PUBLIC "-//W3C//DTD SVG 1.1//EN" "http://www.w3.org/Graphics/SVG/1.1/DTD/svg11.dtd">
<svg version="1.1" xmlns="http://www.w3.org/2000/svg" xmlns:xlink="http://www.w3.org/1999/xlink" x="0px" y="0px"
	 viewBox="0 0 173.8 173.8" enable-background="new 0 0 173.8 173.8" xml:space="preserve">
<g id="Layer_1">
</g>
<g id="intersect">
	<g>
		<path fill="#FFFFFF" d="M0,35.3l51.5,51.5l-33.9,33.9L53,156.1l33.9-33.9l51.5,51.5l35.3-35.3L35.3,0L0,35.3z"/>
	</g>
	<g>
		<path fill="#FFFFFF" d="M35.3,173.8l51.5-51.5l33.9,33.9l35.3-35.3l-33.9-33.9l51.5-51.5L138.4,0L0,138.4L35.3,173.8z"/>
	</g>
	<g>
		<path fill="#FFFFFF" d="M138.4,0L86.9,51.5L53,17.7L17.7,53l33.9,33.9L0,138.4l35.3,35.3L173.8,35.3L138.4,0z"/>
	</g>
	<g>
		<path fill="#FFFFFF" d="M173.8,138.4l-51.5-51.5L156.1,53l-35.3-35.3L86.9,51.5L35.3,0L0,35.3l138.4,138.4L173.8,138.4z"/>
	</g>
</g>
</svg>
