<?xml version="1.0" encoding="utf-8"?>
<!-- Generator: Adobe Illustrator 19.1.0, SVG Export Plug-In . SVG Version: 6.00 Build 0)  -->
<!DOCTYPE svg PUBLIC "-//W3C//DTD SVG 1.1//EN" "http://www.w3.org/Graphics/SVG/1.1/DTD/svg11.dtd">
<svg version="1.1" id="Layer_1" xmlns="http://www.w3.org/2000/svg" xmlns:xlink="http://www.w3.org/1999/xlink" x="0px" y="0px"
	 viewBox="-318.9 241.1 173.8 173.8" style="enable-background:new -318.9 241.1 173.8 173.8;" xml:space="preserve">
<style type="text/css">
	.st0{fill:#FFFFFF;}
</style>
<g id="intersect">
	<g>
		<polygon class="st0" points="-267.3,328 -301.2,361.9 -301.2,361.9 -301.3,361.8 -267.4,327.9 		"/>
		<polygon class="st0" points="-232,363.3 -232.1,363.4 -265.9,397.2 -265.9,397.2 		"/>
	</g>
	<g>
		<polygon class="st0" points="-301.2,361.9 -318.9,379.5 -301.2,361.9 -267.4,328 -267.3,328 		"/>
		<polygon class="st0" points="-198.1,397.2 -198.2,397.3 -232.1,363.4 -283.6,414.9 -318.9,379.5 -283.6,414.8 -265.9,397.2 
			-232,363.3 		"/>
		<polygon class="st0" points="-145.3,276.6 -196.7,328 -196.7,328 -162.8,294.1 		"/>
	</g>
	<g>
		<polygon class="st0" points="-265.9,258.8 -232,292.6 -232.1,292.7 		"/>
		<polygon class="st0" points="-145.1,276.4 -145.3,276.6 -180.5,241.1 		"/>
	</g>
	<g>
		<polygon class="st0" points="-145.2,379.5 -180.5,414.8 -232,363.3 -265.9,397.2 -283.6,414.8 -318.9,379.5 -301.2,361.9 
			-267.3,328 -318.9,276.4 -283.6,241.1 -232.1,292.7 -232,292.6 -180.5,241.1 -145.3,276.6 -162.8,294.1 -196.7,328 -196.7,328 		
			"/>
		<polygon class="st0" points="-283.6,241.1 -232,292.6 -232.1,292.7 		"/>
		<polygon class="st0" points="-180.5,414.8 -145.2,379.5 -196.7,328 -196.7,328 -162.8,294.1 -162.8,294.1 -196.6,328 
			-145.1,379.5 		"/>
	</g>
</g>
</svg>
