<svg xmlns="http://www.w3.org/2000/svg" viewBox="-318.9 241.1 173.8 173.8" enable-background="new -318.9 241.1 173.8 173.8"><style type="text/css">.st0{fill:#FFFFFF;}</style><path class="st0" d="M-267.3 328l-33.9 33.9-.1-.1 33.9-33.9zm35.3 35.3l-.1.1-33.8 33.8zm-69.2-1.4l-17.7 17.6 17.7-17.6 33.8-33.9h.1zm103.1 35.3l-.1.1-33.9-33.9-51.5 51.5-35.3-35.4 35.3 35.3 17.7-17.6 33.9-33.9zm52.8-120.6l-51.4 51.4 33.9-33.9zm-120.6-17.8l33.9 33.8-.1.1zm120.8 17.6l-.2.2-35.2-35.5zm-.1 103.1l-35.3 35.3-51.5-51.5-33.9 33.9-17.7 17.6-35.3-35.3 17.7-17.6 33.9-33.9-51.6-51.6 35.3-35.3 51.5 51.6.1-.1 51.5-51.5 35.2 35.5-17.5 17.5-33.9 33.9zm-138.4-138.4l51.6 51.5-.1.1zm103.1 173.7l35.3-35.3-51.5-51.5 33.9-33.9-33.8 33.9 51.5 51.5z" id="intersect"/></svg>